<?xml version="1.0" encoding="UTF-8" standalone="no"?>
<!-- Created with Inkscape (http://www.inkscape.org/) -->

<svg
   width="115.82mm"
   height="77.343mm"
   version="1.1"
   viewBox="0 0 115.82 77.343"
   id="svg559"
   sodipodi:docname="gc.svg"
   inkscape:version="1.1.2 (b8e25be8, 2022-02-05)"
   xmlns:inkscape="http://www.inkscape.org/namespaces/inkscape"
   xmlns:sodipodi="http://sodipodi.sourceforge.net/DTD/sodipodi-0.dtd"
   xmlns="http://www.w3.org/2000/svg"
   xmlns:svg="http://www.w3.org/2000/svg">
  <sodipodi:namedview
     id="namedview561"
     pagecolor="#ffffff"
     bordercolor="#666666"
     borderopacity="1.0"
     inkscape:pageshadow="2"
     inkscape:pageopacity="0.0"
     inkscape:pagecheckerboard="0"
     inkscape:document-units="mm"
     showgrid="false"
     inkscape:zoom="1.3202642"
     inkscape:cx="198.06642"
     inkscape:cy="120.43044"
     inkscape:window-width="1296"
     inkscape:window-height="836"
     inkscape:window-x="0"
     inkscape:window-y="38"
     inkscape:window-maximized="0"
     inkscape:current-layer="g557" />
  <defs
     id="defs71">
    <clipPath
       id="clip1">
      <path
         d="m381.36 484h3.6406v5h-3.6406z"
         id="path2" />
    </clipPath>
    <clipPath
       id="clip2">
      <path
         d="m386.16 485h4.0781v6h-4.0781z"
         id="path5" />
    </clipPath>
    <clipPath
       id="clip3">
      <path
         d="m391 481h3.8008v10h-3.8008z"
         id="path8" />
    </clipPath>
    <clipPath
       id="clip4">
      <path
         d="m394.56 483h3.1211v7h-3.1211z"
         id="path11" />
    </clipPath>
    <clipPath
       id="clip5">
      <path
         d="m397.44 481h3.3594v10h-3.3594z"
         id="path14" />
    </clipPath>
    <clipPath
       id="clip6">
      <path
         d="m315 536h4.9219v6h-4.9219z"
         id="path17" />
    </clipPath>
    <clipPath
       id="clip7">
      <path
         d="m320 539h4v4.6797h-4z"
         id="path20" />
    </clipPath>
    <clipPath
       id="clip8">
      <path
         d="m323 539h3.3984v4h-3.3984z"
         id="path23" />
    </clipPath>
    <clipPath
       id="clip9">
      <path
         d="m327.12 534h3.8398v9.4375h-3.8398z"
         id="path26" />
    </clipPath>
    <clipPath
       id="clip10">
      <path
         d="m330.72 535h3.1211v7h-3.1211z"
         id="path29" />
    </clipPath>
    <clipPath
       id="clip11">
      <path
         d="m334 534h2.9609v9.4375h-2.9609z"
         id="path32" />
    </clipPath>
    <clipPath
       id="clip12">
      <path
         d="m294.48 516h5.0391v5h-5.0391z"
         id="path35" />
    </clipPath>
    <clipPath
       id="clip13">
      <path
         d="m300 513h2.8789v10h-2.8789z"
         id="path38" />
    </clipPath>
    <clipPath
       id="clip14">
      <path
         d="m161.28 438h6v8h-6z"
         id="path41" />
    </clipPath>
    <clipPath
       id="clip15">
      <path
         d="m213.36 487h5.6406v7h-5.6406z"
         id="path44" />
    </clipPath>
    <clipPath
       id="clip16">
      <path
         d="m237 487h5.3984v7h-5.3984z"
         id="path47" />
    </clipPath>
    <clipPath
       id="clip17">
      <path
         d="m244.32 487h4.6797v5h-4.6797z"
         id="path50" />
    </clipPath>
    <clipPath
       id="clip18">
      <path
         d="m280 485h4v9h-4z"
         id="path53" />
    </clipPath>
    <clipPath
       id="clip19">
      <path
         d="m303 487h5.3984v7h-5.3984z"
         id="path56" />
    </clipPath>
    <clipPath
       id="clip20">
      <path
         d="m326.64 408h5.3594v7.7578h-5.3594z"
         id="path59" />
    </clipPath>
    <clipPath
       id="clip21">
      <path
         d="m326.64 429h3.3594v7h-3.3594z"
         id="path62" />
    </clipPath>
    <clipPath
       id="clip22">
      <path
         d="m336 428h4v9.8398h-4z"
         id="path65" />
    </clipPath>
    <clipPath
       id="clip23">
      <path
         d="m359 431h5.0781v6.8398h-5.0781z"
         id="path68" />
    </clipPath>
  </defs>
  <g
     transform="translate(-55.277 -81.289)"
     id="g557">
    <path
       d="m55.319 82.263 6.2659-0.93155 4.91 0.0854 3.7262 1.0156 2.7933 1.7777 1.8631 2.2021 1.1851 2.5397 0.67662 2.6238 0.25494 2.5411v2.2007l-0.1695 1.9472-0.339 1.5241-0.42306 1.2705-0.42305 0.84612-0.339 0.59255-0.339 0.1695-0.1695-0.1695v-0.50711l0.25494-0.8475 0.42306-1.101 0.67661-1.2692 0.76206-1.3546 1.017-1.3546 1.2692-1.4387 1.44-1.2706 1.6082-1.101 1.6936-0.93156 1.8631-0.67661 1.9472-0.42444 1.8617-0.25356 1.8631 0.1695 1.7777 0.42306 1.6096 0.76205 1.4387 1.1011 1.1851 1.4387 1.017 1.6936 0.84611 1.7777 0.59256 1.9485 0.42306 2.0312 0.25493 1.9472v1.7777l-0.1695 1.779-0.25493 1.4387-0.42306 1.2706-0.5085 1.0997-0.42305 0.76206-0.42306 0.5085-0.339 0.16949-0.0841-0.16949v-0.59256l0.25356-0.84612 0.42306-1.101 0.59255-1.1851 0.8475-1.3546 1.0156-1.44 1.1851-1.3546 1.44-1.2692 1.6082-1.101 1.7777-0.93155 1.8631-0.678 1.8631-0.50712 1.9472-0.1695 1.8631 0.0841 1.6922 0.42443 1.6096 0.76206 1.4387 1.0997 1.2706 1.44 1.0156 1.6936 0.76206 1.8617 0.67799 1.9472 0.42306 1.9472 0.1695 1.9486 0.0841 1.8617-0.1695 1.6936-0.339 1.5241"
       fill="none"
       stroke="#000"
       stroke-linecap="round"
       stroke-linejoin="round"
       stroke-miterlimit="10"
       stroke-width=".084667"
       id="path73" />
    <path
       d="m123.31 117.65-0.42306 1.2706-0.42305 1.0156-0.5085 0.76205-0.33762 0.50712-0.339 0.1695-0.1695-0.1695v-0.50712l0.25356-0.84749 0.42444-1.0997 0.67662-1.2706 0.76205-1.3546 1.0156-1.3546 1.2706-1.4387 1.3546-1.2706 1.6936-1.101 1.6936-0.93155 1.8617-0.67662 1.9472-0.42306 1.8631-0.25493 1.8631 0.16949 1.7777 0.42306 1.6082 0.76206 1.44 1.101 1.1851 1.44 1.0156 1.6082 0.84749 1.8631 0.59256 1.9472 0.42306 2.0326 0.25355 1.9458v1.779l-0.16949 1.6922-0.25356 1.5241-0.42306 1.2706-0.5085 1.1011-0.42305 0.76205-0.42306 0.42306-0.339 0.25356-0.1695-0.25356 0.0854-0.5085 0.25356-0.84611 0.42306-1.101 0.59255-1.2692 0.8475-1.356 1.0156-1.3546 1.1851-1.3546 1.4387-1.2692 1.6096-1.1011 1.7777-0.93155 1.8631-0.76206 1.8617-0.42305 1.8631-0.1695 1.8631 0.0854 1.7777 0.42306 1.6082 0.76206 1.44 1.101 1.1851 1.4387 1.0156 1.6936 0.76206 1.9472 0.59255 2.0312 0.339 2.1167 0.0854 2.1167-0.1695 2.1167-0.42444 1.9486-0.50711 1.6922-0.42306 1.101-0.339 0.42443v-0.50849l0.42306-1.6936 1.0156-3.1323 1.779-4.6578"
       fill="none"
       stroke="#000"
       stroke-linecap="round"
       stroke-linejoin="round"
       stroke-miterlimit="10"
       stroke-width=".084667"
       id="path75" />
    <g
       id="g117">
      <g
         transform="matrix(.35278 0 0 .35278 4.6884 -52.808)"
         clip-path="url(#clip1)"
         id="g83">
        <g
           id="g81">
          <g
             transform="translate(381.36 488.96)"
             id="g79">
            <path
               d="m0.046875-0.15625c0.30078-0.03125 0.5-0.082031 0.59375-0.15625 0.09375-0.082031 0.14062-0.25391 0.14062-0.51562v-2.2031c0-0.32031-0.03125-0.55078-0.09375-0.6875-0.054688-0.14453-0.16406-0.21875-0.32812-0.21875-0.03125 0-0.074219 0.00781-0.125 0.015625-0.054687 0.011719-0.10938 0.023437-0.17188 0.03125v-0.15625c0.1875-0.0625 0.37891-0.125 0.57812-0.1875 0.19531-0.070313 0.33203-0.125 0.40625-0.15625 0.16406-0.0625 0.33203-0.13281 0.5-0.21875 0.019531 0 0.03125 0.011719 0.03125 0.03125 0.00781 0.011719 0.015625 0.042969 0.015625 0.09375v0.8125c0.20703-0.28906 0.40625-0.51562 0.59375-0.67188 0.19531-0.16406 0.39844-0.25 0.60938-0.25 0.16406 0 0.30078 0.054688 0.40625 0.15625 0.10156 0.09375 0.15625 0.21484 0.15625 0.35938 0 0.13672-0.042969 0.25-0.125 0.34375-0.074219 0.085937-0.17188 0.125-0.29688 0.125-0.11719 0-0.23438-0.054687-0.35938-0.17188-0.125-0.11328-0.22656-0.17188-0.29688-0.17188-0.11719 0-0.25781 0.09375-0.42188 0.28125-0.16797 0.1875-0.25 0.38281-0.25 0.57812v2.1875c0 0.28125 0.0625 0.48047 0.1875 0.59375 0.13281 0.10547 0.35156 0.15625 0.65625 0.15625v0.15625h-2.4062z"
               id="path77" />
          </g>
        </g>
      </g>
      <g
         transform="matrix(.35278 0 0 .35278 4.6884 -52.808)"
         clip-path="url(#clip2)"
         id="g91">
        <g
           id="g89">
          <g
             transform="translate(386.4 490.16)"
             id="g87">
            <path
               d="m0.078125-0.125c0.23828-0.019531 0.39453-0.0625 0.46875-0.125 0.070313-0.0625 0.10938-0.21875 0.10938-0.46875v-2.9531c0-0.22656-0.039062-0.37891-0.10938-0.45312-0.074219-0.070312-0.23047-0.11719-0.46875-0.14062v-0.125h1.875v0.125c-0.25 0.023437-0.41797 0.0625-0.5 0.125-0.085937 0.0625-0.125 0.21094-0.125 0.4375v3.1719c0 0.074219 0.00781 0.13281 0.03125 0.17188 0.03125 0.042969 0.085937 0.070313 0.17188 0.078125 0.050781 0.011719 0.10156 0.015625 0.15625 0.015625h0.3125c0.58203 0 0.97656-0.046875 1.1875-0.14062 0.20703-0.09375 0.41016-0.33594 0.60938-0.73438h0.17188l-0.32812 1.1406h-3.5625z"
               id="path85" />
          </g>
        </g>
      </g>
      <g
         transform="matrix(.35278 0 0 .35278 4.6884 -52.808)"
         clip-path="url(#clip3)"
         id="g99">
        <g
           id="g97">
          <g
             transform="translate(390.96 488.96)"
             id="g95">
            <path
               d="m3.3438 1.7188v0.20312c-0.8125-0.39062-1.4688-1.0156-2-1.8594-0.23438-0.34375-0.39062-0.79688-0.48438-1.3438-0.046875-0.26562-0.09375-0.75-0.14062-1.4531v-0.34375c0-0.78125 0.1875-1.5469 0.5625-2.3281 0.375-0.73438 1.0625-1.3281 2.0625-1.7969v0.20312c-0.26562 0.17188-0.60938 0.54688-1.0156 1.1094-0.29688 0.46875-0.51562 0.89062-0.60938 1.2812-0.17188 0.90625-0.28125 1.5156-0.28125 1.8438 0 0.8125 0.09375 1.4688 0.26562 1.9688 0.17188 0.45312 0.42188 0.9375 0.76562 1.4688 0.09375 0.15625 0.25 0.32812 0.42188 0.54688 0.26562 0.26562 0.40625 0.45312 0.45312 0.5z"
               id="path93" />
          </g>
        </g>
      </g>
      <g
         transform="matrix(.35278 0 0 .35278 4.6884 -52.808)"
         clip-path="url(#clip4)"
         id="g107">
        <g
           id="g105">
          <g
             transform="translate(394.56 488.96)"
             id="g103">
            <path
               d="m2.5469-4.5v0.34375h-1l-0.015625 2.8125c0 0.25 0.023438 0.4375 0.078125 0.5625 0.070313 0.23047 0.22266 0.34375 0.45312 0.34375 0.11328 0 0.21094-0.023438 0.29688-0.078125 0.09375-0.0625 0.19141-0.14844 0.29688-0.26562l0.125 0.10938-0.09375 0.14062c-0.17969 0.23047-0.35938 0.39062-0.54688 0.48438s-0.37109 0.14062-0.54688 0.14062c-0.38672 0-0.64844-0.17188-0.78125-0.51562-0.074219-0.1875-0.10938-0.44141-0.10938-0.76562v-2.9688h-0.53125c-0.023437-0.007812-0.039063-0.015625-0.046875-0.015625v-0.046875c0-0.03125 0.003906-0.054688 0.015625-0.078125 0.019531-0.019531 0.066406-0.0625 0.14062-0.125 0.22656-0.1875 0.39062-0.33594 0.48438-0.45312 0.10156-0.11328 0.33594-0.41406 0.70312-0.90625 0.039062 0 0.066406 0.00781 0.078125 0.015625 0.00781 0 0.015625 0.023437 0.015625 0.0625v1.2031z"
               id="path101" />
          </g>
        </g>
      </g>
      <g
         transform="matrix(.35278 0 0 .35278 4.6884 -52.808)"
         clip-path="url(#clip5)"
         id="g115">
        <g
           id="g113">
          <g
             transform="translate(397.44 488.96)"
             id="g111">
            <path
               d="m3.125-2.7344c-0.046875 0.70312-0.09375 1.1875-0.15625 1.4531-0.09375 0.54688-0.23438 1-0.48438 1.3438-0.51562 0.84375-1.1875 1.4688-2 1.8594v-0.20312c0.20312-0.20312 0.5-0.5625 0.875-1.0469 0.34375-0.53125 0.60938-1.0156 0.75-1.4688 0.20312-0.5 0.29688-1.1562 0.29688-1.9688 0-0.32812-0.09375-0.9375-0.3125-1.8438-0.078125-0.39062-0.28125-0.8125-0.59375-1.2812-0.1875-0.26562-0.32812-0.45312-0.45312-0.60938-0.1875-0.20312-0.39062-0.375-0.5625-0.5v-0.20312c0.92188 0.42188 1.5781 1.0156 1.9531 1.7969 0.4375 0.90625 0.67188 1.7188 0.67188 2.4219 0 0.10938 0.015625 0.1875 0.015625 0.25z"
               id="path109" />
          </g>
        </g>
      </g>
    </g>
    <path
       d="m84.021 154.48 55.033-44.195h0.0854v0.0841l-55.033 44.196h-0.0854v-0.0854h-0.0841zm54.357-44.704 1.8617-0.33762-0.76205 1.6922-1.0997-1.3546"
       id="path119" />
    <path
       d="m84.021 154.48 55.033-44.195h0.0854v0.0841l-55.033 44.196h-0.0854v-0.0854h-0.0841zm54.357-44.704 1.8617-0.33762-0.76206 1.6922zm0 0"
       fill="none"
       stroke="#000"
       stroke-linecap="round"
       stroke-linejoin="round"
       stroke-miterlimit="10"
       stroke-width=".084667"
       id="path121" />
    <path
       d="m84.021 154.48 52.833-32.004 0.0841-0.0841v0.1695l-52.831 32.004h-0.0854zm52.324-32.596 1.8631-0.1695-1.0156 1.6082-0.84749-1.4387"
       id="path123" />
    <path
       d="m84.021 154.48 52.833-32.004 0.0841-0.0841v0.1695l-52.831 32.004h-0.0854zm52.324-32.596 1.8631-0.1695-1.0156 1.6082zm0 0"
       fill="none"
       stroke="#000"
       stroke-linecap="round"
       stroke-linejoin="round"
       stroke-miterlimit="10"
       stroke-width=".084667"
       id="path125" />
    <path
       d="m138.21 121.72 1.7777-10.837h0.0854v0.0841l-1.779 10.753h-0.0841v0.0854zm0.93155-10.753 1.0997-1.5227 0.59394 1.7777-1.6936-0.25494"
       id="path127" />
    <path
       d="m138.21 121.72 1.7777-10.837h0.0854v0.0841l-1.779 10.753h-0.0841v0.0854zm0.93155-10.753 1.0997-1.5227 0.59393 1.7777zm0 0"
       fill="none"
       stroke="#000"
       stroke-linecap="round"
       stroke-linejoin="round"
       stroke-miterlimit="10"
       stroke-width=".084667"
       id="path129" />
    <g
       id="g195">
      <g
         transform="matrix(.35278 0 0 .35278 4.6884 -52.808)"
         clip-path="url(#clip6)"
         id="g137">
        <g
           id="g135">
          <g
             transform="translate(314.88 541.28)"
             id="g133">
            <path
               d="m2.2969-4.4531v0.125c-0.125 0.011719-0.23047 0.03125-0.3125 0.0625-0.085937 0.03125-0.125 0.09375-0.125 0.1875 0 0.0625 0.082031 0.23438 0.25 0.51562 0.09375 0.14844 0.20703 0.32812 0.34375 0.54688 0.19531-0.25781 0.34375-0.46094 0.4375-0.60938 0.15625-0.23828 0.23438-0.39453 0.23438-0.46875 0-0.082031-0.039062-0.14062-0.10938-0.17188-0.0625-0.03125-0.15625-0.050781-0.28125-0.0625v-0.125h1.5625v0.125c-0.16797 0.023437-0.32422 0.070313-0.46875 0.14062-0.13672 0.074219-0.24609 0.17188-0.32812 0.29688l-0.84375 1.2031 1.2812 1.9375c0.16406 0.25 0.30469 0.41797 0.42188 0.5 0.11328 0.074219 0.25 0.10938 0.40625 0.10938v0.14062h-2.0156v-0.14062h0.14062c0.082031-0.007813 0.14453-0.03125 0.1875-0.0625 0.050781-0.039063 0.078125-0.09375 0.078125-0.15625s-0.0625-0.19531-0.1875-0.40625c-0.054688-0.10156-0.13672-0.24219-0.25-0.42188-0.0625-0.082031-0.14844-0.20312-0.25-0.35938-0.10547-0.15625-0.19922-0.28906-0.28125-0.40625l-0.78125 1.2188c-0.09375 0.14844-0.15234 0.24609-0.17188 0.29688-0.023437 0.042969-0.03125 0.085938-0.03125 0.125 0 0.054688 0.023437 0.089844 0.078125 0.10938 0.050781 0.023437 0.16016 0.042969 0.32812 0.0625v0.14062h-1.4375v-0.14062c0.17578-0.03125 0.30469-0.070313 0.39062-0.125 0.082031-0.0625 0.19141-0.19141 0.32812-0.39062l1.125-1.6406-0.92188-1.4219c-0.1875-0.28125-0.32031-0.44531-0.39062-0.5-0.074219-0.050781-0.23047-0.085938-0.46875-0.10938v-0.125z"
               id="path131" />
          </g>
        </g>
      </g>
      <g
         transform="matrix(.35278 0 0 .35278 4.6884 -52.808)"
         clip-path="url(#clip7)"
         id="g145">
        <g
           id="g143">
          <g
             transform="translate(320.16 542.48)"
             id="g141">
            <path
               d="m0.65625 0.59375c0 0.1875 0.097656 0.3125 0.29688 0.375 0.20703 0.070312 0.44141 0.10938 0.70312 0.10938 0.35156 0 0.64062-0.0625 0.85938-0.1875 0.22656-0.125 0.34375-0.27734 0.34375-0.45312 0-0.14844-0.089844-0.24609-0.26562-0.29688-0.11719-0.023437-0.32812-0.039063-0.64062-0.046875-0.074219 0-0.15625-0.0078125-0.25-0.015625h-0.23438c-0.054688 0-0.13281-0.011719-0.23438-0.03125-0.10547-0.011719-0.18359-0.023438-0.23438-0.03125-0.03125 0-0.09375 0.066406-0.1875 0.20312-0.10547 0.13281-0.15625 0.25781-0.15625 0.375zm0.42188-1.6875c-0.19922-0.0625-0.35547-0.17578-0.46875-0.34375-0.10547-0.16406-0.15625-0.35156-0.15625-0.5625 0-0.25 0.097656-0.48438 0.29688-0.70312 0.19531-0.22656 0.47656-0.34375 0.84375-0.34375 0.16406 0 0.34375 0.039063 0.53125 0.10938 0.1875 0.074219 0.36719 0.10938 0.54688 0.10938h0.20312c0.09375-0.00781 0.16016-0.015625 0.20312-0.015625h0.03125v0.26562h-0.5625c0.039063 0.09375 0.070313 0.17188 0.09375 0.23438 0.039063 0.125 0.0625 0.24609 0.0625 0.35938 0 0.25-0.10547 0.48047-0.3125 0.6875-0.19922 0.19922-0.47656 0.29688-0.82812 0.29688-0.054688 0-0.14844-0.007812-0.28125-0.03125-0.0625 0-0.14844 0.058594-0.25 0.17188-0.10547 0.10547-0.15625 0.1875-0.15625 0.25 0 0.074219 0.078125 0.125 0.23438 0.15625 0.09375 0.023437 0.20312 0.03125 0.32812 0.03125 0.55078 0 0.92578 0.03125 1.125 0.09375 0.32031 0.10547 0.48438 0.32422 0.48438 0.65625 0 0.33203-0.19531 0.59766-0.57812 0.79688-0.375 0.20703-0.75781 0.3125-1.1406 0.3125-0.35547 0-0.63672-0.074219-0.84375-0.21875-0.21094-0.13672-0.3125-0.28125-0.3125-0.4375 0-0.085938 0.023437-0.16406 0.078125-0.23438 0.0625-0.074219 0.17188-0.18359 0.32812-0.32812l0.21875-0.1875 0.03125-0.046875c-0.09375-0.039062-0.16797-0.078125-0.21875-0.10938-0.085937-0.0625-0.125-0.14062-0.125-0.23438 0-0.070313 0.035156-0.15625 0.10938-0.25 0.070312-0.10156 0.23438-0.26562 0.48438-0.48438zm0.60938-0.0625c0.11328 0 0.21094-0.03125 0.29688-0.09375 0.125-0.10156 0.1875-0.28125 0.1875-0.53125 0-0.20703-0.054687-0.4375-0.15625-0.6875-0.10547-0.25781-0.27734-0.39062-0.51562-0.39062-0.21094 0-0.35547 0.10156-0.4375 0.29688-0.042969 0.10547-0.0625 0.23438-0.0625 0.39062 0 0.26172 0.0625 0.49609 0.1875 0.70312 0.125 0.21094 0.28906 0.3125 0.5 0.3125z"
               id="path139" />
          </g>
        </g>
      </g>
      <g
         transform="matrix(.35278 0 0 .35278 4.6884 -52.808)"
         clip-path="url(#clip8)"
         id="g153">
        <g
           id="g151">
          <g
             transform="translate(323.28 542.48)"
             id="g149">
            <path
               d="m1.6406-3.0469c0.26953 0 0.50391 0.070313 0.70312 0.20312 0.19531 0.13672 0.29688 0.28906 0.29688 0.45312 0 0.074219-0.027344 0.14062-0.078125 0.20312-0.054688 0.0625-0.13281 0.09375-0.23438 0.09375-0.074219 0-0.14062-0.023438-0.20312-0.078125-0.054688-0.050781-0.089844-0.125-0.10938-0.21875l-0.046875-0.15625c-0.03125-0.11328-0.078125-0.19531-0.14062-0.25-0.074219-0.039063-0.16797-0.0625-0.28125-0.0625-0.25 0-0.46094 0.10938-0.625 0.32812-0.16797 0.21094-0.25 0.49219-0.25 0.84375 0 0.32422 0.085937 0.61719 0.26562 0.875 0.1875 0.26172 0.44141 0.39062 0.76562 0.39062 0.21875 0 0.41406-0.070313 0.59375-0.21875 0.10156-0.082031 0.21875-0.21875 0.34375-0.40625l0.09375 0.0625c-0.125 0.26172-0.25781 0.46484-0.39062 0.60938-0.26172 0.29297-0.5625 0.4375-0.90625 0.4375s-0.64844-0.12891-0.90625-0.39062c-0.25-0.26953-0.375-0.63281-0.375-1.0938 0-0.44531 0.14062-0.82812 0.42188-1.1406 0.28125-0.32031 0.63281-0.48438 1.0625-0.48438z"
               id="path147" />
          </g>
        </g>
      </g>
      <g
         transform="matrix(.35278 0 0 .35278 4.6884 -52.808)"
         clip-path="url(#clip9)"
         id="g161">
        <g
           id="g159">
          <g
             transform="translate(327.12 541.28)"
             id="g157">
            <path
               d="m3.2812 1.7188v0.20312c-0.71875-0.375-1.2969-0.96875-1.7812-1.7969-0.1875-0.34375-0.32812-0.78125-0.42188-1.3125-0.03125-0.25-0.078125-0.73438-0.125-1.4219-0.14062-0.09375-0.23438-0.20312-0.23438-0.32812 0-0.75 0.20312-1.5156 0.5625-2.2656 0.35938-0.71875 1.0312-1.2969 2-1.75v0.20312c-0.25 0.15625-0.57812 0.51562-0.98438 1.0781-0.29688 0.45312-0.48438 0.85938-0.57812 1.2344-0.17188 0.875-0.28125 1.4844-0.28125 1.7969 0 0.78125 0.09375 1.4219 0.26562 1.9219 0.15625 0.45312 0.40625 0.90625 0.75 1.4219 0.078125 0.15625 0.21875 0.32812 0.39062 0.53125 0.25 0.26562 0.39062 0.4375 0.4375 0.48438z"
               id="path155" />
          </g>
        </g>
      </g>
      <g
         transform="matrix(.35278 0 0 .35278 4.6884 -52.808)"
         clip-path="url(#clip10)"
         id="g169">
        <g
           id="g167">
          <g
             transform="translate(330.72 541.28)"
             id="g165">
            <path
               d="m2.5312-4.4688v0.34375h-1v2.7969c0 0.25 0.019531 0.4375 0.0625 0.5625 0.070312 0.21875 0.22266 0.32812 0.45312 0.32812 0.11328 0 0.21094-0.023438 0.29688-0.078125 0.09375-0.0625 0.19141-0.14844 0.29688-0.26562l0.125 0.10938-0.10938 0.14062c-0.16797 0.23047-0.34375 0.39062-0.53125 0.48438s-0.36719 0.14062-0.53125 0.14062c-0.38672 0-0.64844-0.17188-0.78125-0.51562-0.074219-0.17578-0.10938-0.42969-0.10938-0.76562v-2.9375h-0.53125c-0.023437-0.007812-0.039063-0.019531-0.046875-0.03125v-0.03125c0-0.03125 0.003906-0.054688 0.015625-0.078125 0.019531-0.019531 0.066406-0.0625 0.14062-0.125 0.21875-0.1875 0.375-0.33594 0.46875-0.45312 0.10156-0.11328 0.33594-0.41406 0.70312-0.90625 0.050781 0 0.078125 0.00781 0.078125 0.015625 0.00781 0 0.015625 0.023437 0.015625 0.0625v1.2031z"
               id="path163" />
          </g>
        </g>
      </g>
      <g
         transform="matrix(.35278 0 0 .35278 4.6884 -52.808)"
         clip-path="url(#clip11)"
         id="g177">
        <g
           id="g175">
          <g
             transform="translate(333.6 541.28)"
             id="g173">
            <path
               d="m3.125-2.6094c-0.046875 0.6875-0.09375 1.1719-0.15625 1.4219-0.09375 0.53125-0.23438 0.96875-0.48438 1.3125-0.51562 0.82812-1.1875 1.4219-2 1.7969v-0.20312c0.23438-0.20312 0.5625-0.53125 0.98438-1.0156 0.39062-0.51562 0.67188-0.96875 0.85938-1.4219 0.20312-0.5 0.3125-1.1406 0.3125-1.9219 0-0.3125-0.10938-0.92188-0.32812-1.7969-0.10938-0.375-0.32812-0.78125-0.67188-1.2344-0.21875-0.25-0.39062-0.45312-0.51562-0.59375-0.23438-0.21875-0.4375-0.35938-0.64062-0.48438v-0.20312c0.89062 0.40625 1.5312 1 1.8906 1.75 0.45312 0.89062 0.67188 1.6719 0.67188 2.3594 0 0.078125 0.03125 0.17188 0.078125 0.23438z"
               id="path171" />
          </g>
        </g>
      </g>
      <g
         transform="matrix(.35278 0 0 .35278 4.6884 -52.808)"
         clip-path="url(#clip12)"
         id="g185">
        <g
           id="g183">
          <g
             transform="translate(294.48 520.88)"
             id="g181">
            <path
               d="m2.2969-4.4531v0.125c-0.125 0.011719-0.23047 0.03125-0.3125 0.0625-0.085937 0.03125-0.125 0.09375-0.125 0.1875 0 0.0625 0.082031 0.23438 0.25 0.51562 0.09375 0.14844 0.20703 0.32812 0.34375 0.54688 0.19531-0.25781 0.34375-0.46094 0.4375-0.60938 0.15625-0.23828 0.23438-0.39453 0.23438-0.46875 0-0.082031-0.039062-0.14062-0.10938-0.17188-0.0625-0.03125-0.15625-0.050781-0.28125-0.0625v-0.125h1.5625v0.125c-0.16797 0.023437-0.32422 0.070313-0.46875 0.14062-0.13672 0.074219-0.24609 0.17188-0.32812 0.29688l-0.84375 1.2031 1.2812 1.9375c0.16406 0.25 0.30469 0.41797 0.42188 0.5 0.11328 0.074219 0.25 0.10938 0.40625 0.10938v0.14062h-2.0156v-0.14062h0.14062c0.082031-0.007813 0.14453-0.03125 0.1875-0.0625 0.050781-0.039063 0.078125-0.09375 0.078125-0.15625s-0.0625-0.19531-0.1875-0.40625c-0.054688-0.10156-0.13672-0.24219-0.25-0.42188-0.0625-0.082031-0.14844-0.20312-0.25-0.35938-0.10547-0.15625-0.19922-0.28906-0.28125-0.40625l-0.78125 1.2188c-0.09375 0.14844-0.15234 0.24609-0.17188 0.29688-0.023437 0.042969-0.03125 0.085938-0.03125 0.125 0 0.054688 0.023437 0.089844 0.078125 0.10938 0.050781 0.023437 0.16016 0.042969 0.32812 0.0625v0.14062h-1.4375v-0.14062c0.17578-0.03125 0.30469-0.070313 0.39062-0.125 0.082031-0.0625 0.19141-0.19141 0.32812-0.39062l1.125-1.6406-0.92188-1.4219c-0.1875-0.28125-0.32031-0.44531-0.39062-0.5-0.074219-0.050781-0.23047-0.085938-0.46875-0.10938v-0.125z"
               id="path179" />
          </g>
        </g>
      </g>
      <g
         transform="matrix(.35278 0 0 .35278 4.6884 -52.808)"
         clip-path="url(#clip13)"
         id="g193">
        <g
           id="g191">
          <g
             transform="translate(299.28 520.88)"
             id="g189">
            <path
               d="m3.3438 1.7188v0.20312c-0.8125-0.39062-1.4688-1.0156-2-1.8594-0.23438-0.34375-0.39062-0.79688-0.48438-1.3438-0.046875-0.26562-0.09375-0.75-0.14062-1.4531v-0.34375c0-0.78125 0.1875-1.5469 0.5625-2.3281 0.375-0.73438 1.0625-1.3281 2.0625-1.7969v0.20312c-0.26562 0.17188-0.60938 0.54688-1.0156 1.1094-0.29688 0.46875-0.51562 0.89062-0.60938 1.2812-0.17188 0.90625-0.28125 1.5156-0.28125 1.8438 0 0.8125 0.09375 1.4688 0.26562 1.9688 0.17188 0.45312 0.42188 0.9375 0.76562 1.4688 0.09375 0.15625 0.25 0.32812 0.42188 0.54688 0.26562 0.26562 0.40625 0.45312 0.45312 0.5z"
               id="path187" />
          </g>
        </g>
      </g>
    </g>
    <g
       transform="matrix(.35278 0 0 .35278 4.6884 -52.808)"
       id="g201">
      <g
         transform="translate(302.88 520.88)"
         id="g199">
        <path
           d="m2.5312-4.4688v0.34375h-1v2.7969c0 0.25 0.019531 0.4375 0.0625 0.5625 0.070312 0.21875 0.22266 0.32812 0.45312 0.32812 0.11328 0 0.21094-0.023438 0.29688-0.078125 0.09375-0.0625 0.19141-0.14844 0.29688-0.26562l0.125 0.10938-0.10938 0.14062c-0.16797 0.23047-0.34375 0.39062-0.53125 0.48438s-0.36719 0.14062-0.53125 0.14062c-0.38672 0-0.64844-0.17188-0.78125-0.51562-0.074219-0.17578-0.10938-0.42969-0.10938-0.76562v-2.9375h-0.53125c-0.023437-0.007812-0.039063-0.019531-0.046875-0.03125v-0.03125c0-0.03125 0.003906-0.054688 0.015625-0.078125 0.019531-0.019531 0.066406-0.0625 0.14062-0.125 0.21875-0.1875 0.375-0.33594 0.46875-0.45312 0.10156-0.11328 0.33594-0.41406 0.70312-0.90625 0.050781 0 0.078125 0.00781 0.078125 0.015625 0.00781 0 0.015625 0.023437 0.015625 0.0625v1.2031z"
           id="path197" />
      </g>
    </g>
    <g
       transform="matrix(.35278 0 0 .35278 4.6884 -52.808)"
       id="g207">
      <g
         transform="translate(305.76 520.88)"
         id="g205">
        <path
           d="m3.125-2.7344c-0.046875 0.70312-0.09375 1.1875-0.15625 1.4531-0.09375 0.54688-0.23438 1-0.48438 1.3438-0.51562 0.84375-1.1875 1.4688-2 1.8594v-0.20312c0.20312-0.20312 0.5-0.5625 0.875-1.0469 0.34375-0.53125 0.60938-1.0156 0.75-1.4688 0.20312-0.5 0.29688-1.1562 0.29688-1.9688 0-0.32812-0.09375-0.9375-0.3125-1.8438-0.078125-0.39062-0.28125-0.8125-0.59375-1.2812-0.1875-0.26562-0.32812-0.45312-0.45312-0.60938-0.1875-0.20312-0.39062-0.375-0.5625-0.5v-0.20312c0.92188 0.42188 1.5781 1.0156 1.9531 1.7969 0.4375 0.90625 0.67188 1.7188 0.67188 2.4219 0 0.10938 0.015625 0.1875 0.015625 0.25z"
           id="path203" />
      </g>
    </g>
    <g
       transform="matrix(.35278 0 0 .35278 4.6884 -52.808)"
       clip-path="url(#clip14)"
       id="g215">
      <g
         id="g213">
        <g
           transform="translate(161.28 445.28)"
           id="g211">
          <path
             d="m2.9531-0.35938c0.50781 0 0.9375-0.097656 1.2812-0.29688 0.34375-0.19531 0.51562-0.57812 0.51562-1.1406 0-0.55078-0.20312-0.92578-0.60938-1.125-0.39844-0.20703-0.90625-0.3125-1.5312-0.3125h-0.29688-0.17188v2.4688c0 0.16797 0.046875 0.27734 0.14062 0.32812 0.09375 0.054688 0.31641 0.078125 0.67188 0.078125zm-2.7812 0.1875c0.39453-0.03125 0.64844-0.09375 0.76562-0.1875 0.125-0.10156 0.1875-0.34375 0.1875-0.71875v-4.4219c0-0.36328-0.0625-0.59766-0.1875-0.70312-0.11719-0.10156-0.37109-0.16406-0.76562-0.1875v-0.1875h2.7812c0.80078 0 1.4297 0.13281 1.8906 0.39062 0.46875 0.25 0.70312 0.6875 0.70312 1.3125 0 0.46875-0.16406 0.82812-0.48438 1.0781-0.1875 0.13672-0.46484 0.25-0.82812 0.34375 0.45703 0.10547 0.84766 0.28906 1.1719 0.54688 0.32031 0.26172 0.48438 0.62109 0.48438 1.0781 0 0.77344-0.35938 1.3047-1.0781 1.5938-0.38672 0.15625-0.85547 0.23438-1.4062 0.23438h-3.2344zm2.9062-3.4688c0.33203 0 0.60938-0.050781 0.82812-0.15625 0.42578-0.1875 0.64062-0.53516 0.64062-1.0469 0-0.58203-0.24609-0.97656-0.73438-1.1875-0.27344-0.11328-0.67969-0.17188-1.2188-0.17188-0.21094 0-0.33984 0.023437-0.39062 0.0625-0.042969 0.03125-0.0625 0.125-0.0625 0.28125v2.2344z"
             id="path209" />
        </g>
      </g>
    </g>
    <path
       d="m118.82 93.016-5.5025 5.588h-0.0854v-0.0841l5.5039-5.588h0.0841l0.0854 0.0841zm-5.0794 5.7574-1.101 0.42305 0.42306-1.101 0.67799 0.678"
       id="path219" />
    <path
       d="m118.82 93.016-5.5025 5.588h-0.0854v-0.0841l5.5039-5.588h0.0841l0.0854 0.0841zm-5.0794 5.7574-1.101 0.42306 0.42306-1.1011zm0 0"
       fill="none"
       stroke="#000"
       stroke-linecap="round"
       stroke-linejoin="round"
       stroke-miterlimit="10"
       stroke-width=".084667"
       id="path221" />
    <g
       transform="matrix(.35278 0 0 .35278 4.6884 -52.808)"
       clip-path="url(#clip15)"
       id="g229">
      <g
         id="g227">
        <g
           transform="translate(213.36 491.84)"
           id="g225">
          <path
             d="m0.98438 0.90625c0 0.26953 0.14844 0.45703 0.45312 0.5625 0.3125 0.10156 0.66406 0.15625 1.0625 0.15625 0.53906 0 0.97656-0.09375 1.3125-0.28125 0.34375-0.1875 0.51562-0.41797 0.51562-0.6875 0-0.21875-0.13672-0.36719-0.40625-0.4375-0.17969-0.042969-0.5-0.070312-0.96875-0.078125-0.11719 0-0.24219-0.007813-0.375-0.015625h-0.375c-0.074219-0.011719-0.1875-0.027344-0.34375-0.046875-0.15625-0.023438-0.27734-0.042969-0.35938-0.0625-0.03125 0-0.125 0.10156-0.28125 0.3125-0.15625 0.20703-0.23438 0.39844-0.23438 0.57812zm0.625-2.5469c-0.29297-0.09375-0.52344-0.26562-0.6875-0.51562-0.16797-0.25781-0.25-0.54688-0.25-0.85938 0-0.375 0.14844-0.73438 0.45312-1.0781 0.3125-0.34375 0.74219-0.51562 1.2969-0.51562 0.23828 0 0.5 0.058594 0.78125 0.17188 0.28906 0.11719 0.56641 0.17188 0.82812 0.17188h0.29688c0.14453-0.00781 0.25-0.015625 0.3125-0.015625h0.0625v0.39062h-0.84375c0.050781 0.13672 0.09375 0.25781 0.125 0.35938 0.0625 0.1875 0.09375 0.36719 0.09375 0.53125 0 0.375-0.15625 0.71875-0.46875 1.0312-0.30469 0.3125-0.71484 0.46875-1.2344 0.46875-0.085938 0-0.23438-0.015625-0.45312-0.046875-0.09375 0-0.21875 0.085937-0.375 0.25-0.14844 0.15625-0.21875 0.28125-0.21875 0.375 0 0.10547 0.11328 0.18359 0.34375 0.23438 0.14453 0.03125 0.30469 0.046875 0.48438 0.046875 0.84375 0 1.4141 0.046875 1.7188 0.14062 0.48828 0.15625 0.73438 0.48438 0.73438 0.98438 0 0.51953-0.29297 0.92969-0.875 1.2344-0.57422 0.30078-1.1523 0.45312-1.7344 0.45312-0.53125 0-0.95312-0.10938-1.2656-0.32812-0.3125-0.21094-0.46875-0.43359-0.46875-0.67188 0-0.11719 0.039063-0.23047 0.125-0.34375 0.082031-0.11719 0.24219-0.28125 0.48438-0.5l0.32812-0.28125 0.0625-0.0625c-0.15625-0.0625-0.27344-0.11719-0.34375-0.17188-0.125-0.10156-0.1875-0.21875-0.1875-0.34375s0.050781-0.25781 0.15625-0.40625c0.11328-0.14453 0.35156-0.37891 0.71875-0.70312zm0.9375-0.09375c0.17578 0 0.32812-0.050781 0.45312-0.15625 0.1875-0.15625 0.28125-0.42578 0.28125-0.8125 0-0.3125-0.078125-0.66016-0.23438-1.0469-0.15625-0.38281-0.41797-0.57812-0.78125-0.57812-0.32422 0-0.54297 0.15234-0.65625 0.45312-0.0625 0.15625-0.09375 0.35547-0.09375 0.59375 0 0.39844 0.09375 0.75781 0.28125 1.0781 0.1875 0.3125 0.4375 0.46875 0.75 0.46875z"
             id="path223" />
        </g>
      </g>
    </g>
    <g
       id="g261">
      <g
         transform="matrix(.35278 0 0 .35278 4.6884 -52.808)"
         id="g235">
        <g
           transform="translate(217.92 491.84)"
           id="g233">
          <path
             d="m1.5469-4.5156v3.125c0 0.21875 0.03125 0.39844 0.09375 0.53125 0.125 0.24219 0.34766 0.35938 0.67188 0.35938 0.21875 0 0.42969-0.070312 0.64062-0.21875 0.125-0.070312 0.25-0.17969 0.375-0.32812v-2.6719c0-0.25781-0.054687-0.42578-0.15625-0.5-0.09375-0.082031-0.28906-0.12891-0.57812-0.14062v-0.15625h1.5781v3.4375c0 0.21875 0.035156 0.37109 0.10938 0.45312 0.082031 0.085938 0.25391 0.12109 0.51562 0.10938v0.14062c-0.1875 0.042969-0.32422 0.078125-0.40625 0.10938-0.085937 0.023437-0.22656 0.0625-0.42188 0.125-0.085938 0.03125-0.27344 0.10547-0.5625 0.21875-0.011719 0-0.023438-0.011719-0.03125-0.03125v-0.046875-0.78125c-0.21875 0.26172-0.41797 0.45312-0.59375 0.57812-0.28125 0.19922-0.57812 0.29688-0.89062 0.29688-0.28125 0-0.54688-0.097656-0.79688-0.29688-0.25-0.20703-0.375-0.54688-0.375-1.0156v-2.5312c0-0.25781-0.058594-0.42969-0.17188-0.51562-0.074219-0.050781-0.22656-0.09375-0.45312-0.125v-0.125z"
             id="path231" />
        </g>
      </g>
      <g
         transform="matrix(.35278 0 0 .35278 4.6884 -52.808)"
         id="g241">
        <g
           transform="translate(222.72 491.84)"
           id="g239">
          <path
             d="m0.82812-6.2969c0-0.14453 0.046875-0.26562 0.14062-0.35938 0.09375-0.10156 0.21094-0.15625 0.35938-0.15625 0.13281 0 0.25391 0.054688 0.35938 0.15625 0.10156 0.09375 0.15625 0.21484 0.15625 0.35938 0 0.13672-0.054688 0.25781-0.15625 0.35938-0.10547 0.09375-0.22656 0.14062-0.35938 0.14062-0.14844 0-0.26562-0.046875-0.35938-0.14062-0.09375-0.10156-0.14062-0.22266-0.14062-0.35938zm-0.625 6.1562c0.34375-0.03125 0.55469-0.085937 0.64062-0.17188 0.09375-0.082031 0.14062-0.31641 0.14062-0.70312v-2.3281c0-0.20703-0.011719-0.35156-0.03125-0.4375-0.054687-0.13281-0.15625-0.20312-0.3125-0.20312-0.03125 0-0.070313 0.00781-0.10938 0.015625-0.03125 0-0.13281 0.027344-0.29688 0.078125v-0.15625l0.21875-0.0625c0.5625-0.1875 0.95703-0.32812 1.1875-0.42188 0.09375-0.039062 0.14844-0.0625 0.17188-0.0625 0.00781 0.023438 0.015625 0.046875 0.015625 0.078125v3.5c0 0.375 0.039063 0.60938 0.125 0.70312 0.09375 0.09375 0.29688 0.15234 0.60938 0.17188v0.14062h-2.3594z"
             id="path237" />
        </g>
      </g>
      <g
         transform="matrix(.35278 0 0 .35278 4.6884 -52.808)"
         id="g247">
        <g
           transform="translate(225.12 491.84)"
           id="g245">
          <path
             d="m2.375-4.6094c0.22656 0 0.44141 0.054687 0.64062 0.15625 0.13281 0.0625 0.26562 0.15625 0.39062 0.28125v-1.5625c0-0.19531-0.027344-0.33203-0.078125-0.40625-0.042969-0.070313-0.14844-0.10938-0.3125-0.10938-0.042969 0-0.078125 0.00781-0.10938 0.015625-0.023438 0-0.085938 0.00781-0.1875 0.015625v-0.17188l0.40625-0.09375c0.14453-0.039063 0.28906-0.082031 0.4375-0.125 0.14453-0.039063 0.27344-0.082031 0.39062-0.125 0.050781-0.019531 0.13281-0.050781 0.25-0.09375l0.03125 0.015625-0.015625 0.51562c0 0.17969-0.00781 0.36719-0.015625 0.5625v0.59375 3.9844c0 0.21094 0.023437 0.35547 0.078125 0.4375 0.050781 0.085938 0.1875 0.125 0.40625 0.125h0.10938 0.10938v0.15625c-0.023438 0-0.25781 0.078125-0.70312 0.23438l-0.76562 0.29688-0.03125-0.046875v-0.59375c-0.1875 0.19922-0.35156 0.33984-0.48438 0.42188-0.24219 0.14453-0.51562 0.21875-0.82812 0.21875-0.55469 0-1-0.21094-1.3438-0.64062-0.34375-0.42578-0.51562-0.92188-0.51562-1.4844 0-0.70703 0.20312-1.3125 0.60938-1.8125 0.41406-0.50781 0.92578-0.76562 1.5312-0.76562zm0.17188 4.1719c0.25781 0 0.46875-0.070312 0.625-0.21875 0.15625-0.15625 0.23438-0.29688 0.23438-0.42188v-2.0938c0-0.42578-0.11719-0.72656-0.34375-0.90625-0.23047-0.17578-0.45312-0.26562-0.67188-0.26562-0.40625 0-0.72656 0.18359-0.95312 0.54688-0.23047 0.36719-0.34375 0.8125-0.34375 1.3438 0 0.52344 0.11719 0.99219 0.35938 1.4062 0.25 0.40625 0.61328 0.60938 1.0938 0.60938z"
             id="path243" />
        </g>
      </g>
      <g
         transform="matrix(.35278 0 0 .35278 4.6884 -52.808)"
         id="g253">
        <g
           transform="translate(229.92 491.84)"
           id="g251">
          <path
             d="m0.82812-6.2969c0-0.14453 0.046875-0.26562 0.14062-0.35938 0.09375-0.10156 0.21094-0.15625 0.35938-0.15625 0.13281 0 0.25391 0.054688 0.35938 0.15625 0.10156 0.09375 0.15625 0.21484 0.15625 0.35938 0 0.13672-0.054688 0.25781-0.15625 0.35938-0.10547 0.09375-0.22656 0.14062-0.35938 0.14062-0.14844 0-0.26562-0.046875-0.35938-0.14062-0.09375-0.10156-0.14062-0.22266-0.14062-0.35938zm-0.625 6.1562c0.34375-0.03125 0.55469-0.085937 0.64062-0.17188 0.09375-0.082031 0.14062-0.31641 0.14062-0.70312v-2.3281c0-0.20703-0.011719-0.35156-0.03125-0.4375-0.054687-0.13281-0.15625-0.20312-0.3125-0.20312-0.03125 0-0.070313 0.00781-0.10938 0.015625-0.03125 0-0.13281 0.027344-0.29688 0.078125v-0.15625l0.21875-0.0625c0.5625-0.1875 0.95703-0.32812 1.1875-0.42188 0.09375-0.039062 0.14844-0.0625 0.17188-0.0625 0.00781 0.023438 0.015625 0.046875 0.015625 0.078125v3.5c0 0.375 0.039063 0.60938 0.125 0.70312 0.09375 0.09375 0.29688 0.15234 0.60938 0.17188v0.14062h-2.3594z"
             id="path249" />
        </g>
      </g>
      <g
         transform="matrix(.35278 0 0 .35278 4.6884 -52.808)"
         id="g259">
        <g
           transform="translate(232.56 491.84)"
           id="g257">
          <path
             d="m0.1875-0.14062c0.22656-0.03125 0.39062-0.085937 0.48438-0.17188 0.09375-0.082031 0.14062-0.27344 0.14062-0.57812v-2.4688c0-0.20703-0.023438-0.35156-0.0625-0.4375-0.0625-0.125-0.19531-0.1875-0.39062-0.1875h-0.078125c-0.03125 0-0.074219 0.00781-0.125 0.015625v-0.17188c0.13281-0.039063 0.45312-0.14062 0.95312-0.29688l0.45312-0.15625c0.03125 0 0.046875 0.011719 0.046875 0.03125v0.0625 0.71875c0.30078-0.28125 0.53516-0.47266 0.70312-0.57812 0.25781-0.15625 0.52344-0.23438 0.79688-0.23438 0.21875 0 0.42188 0.0625 0.60938 0.1875 0.35156 0.25 0.53125 0.6875 0.53125 1.3125v2.2812c0 0.24219 0.046875 0.41406 0.14062 0.51562 0.09375 0.10547 0.25 0.15625 0.46875 0.15625v0.14062h-2.0781v-0.14062c0.22656-0.03125 0.39062-0.09375 0.48438-0.1875 0.09375-0.10156 0.14062-0.32031 0.14062-0.65625v-2.0781c0-0.28125-0.054688-0.50781-0.15625-0.6875-0.10547-0.1875-0.29297-0.28125-0.5625-0.28125-0.19922 0-0.39844 0.0625-0.59375 0.1875-0.11719 0.074219-0.25781 0.19922-0.42188 0.375v2.7344c0 0.23047 0.050781 0.38672 0.15625 0.46875 0.10156 0.085937 0.26562 0.125 0.48438 0.125v0.14062h-2.125z"
             id="path255" />
        </g>
      </g>
    </g>
    <g
       transform="matrix(.35278 0 0 .35278 4.6884 -52.808)"
       clip-path="url(#clip16)"
       id="g269">
      <g
         id="g267">
        <g
           transform="translate(237.36 491.84)"
           id="g265">
          <path
             d="m0.98438 0.90625c0 0.26953 0.14844 0.45703 0.45312 0.5625 0.3125 0.10156 0.66406 0.15625 1.0625 0.15625 0.53906 0 0.97656-0.09375 1.3125-0.28125 0.34375-0.1875 0.51562-0.41797 0.51562-0.6875 0-0.21875-0.13672-0.36719-0.40625-0.4375-0.17969-0.042969-0.5-0.070312-0.96875-0.078125-0.11719 0-0.24219-0.007813-0.375-0.015625h-0.375c-0.074219-0.011719-0.1875-0.027344-0.34375-0.046875-0.15625-0.023438-0.27734-0.042969-0.35938-0.0625-0.03125 0-0.125 0.10156-0.28125 0.3125-0.15625 0.20703-0.23438 0.39844-0.23438 0.57812zm0.625-2.5469c-0.29297-0.09375-0.52344-0.26562-0.6875-0.51562-0.16797-0.25781-0.25-0.54688-0.25-0.85938 0-0.375 0.14844-0.73438 0.45312-1.0781 0.3125-0.34375 0.74219-0.51562 1.2969-0.51562 0.23828 0 0.5 0.058594 0.78125 0.17188 0.28906 0.11719 0.56641 0.17188 0.82812 0.17188h0.29688c0.14453-0.00781 0.25-0.015625 0.3125-0.015625h0.0625v0.39062h-0.84375c0.050781 0.13672 0.09375 0.25781 0.125 0.35938 0.0625 0.1875 0.09375 0.36719 0.09375 0.53125 0 0.375-0.15625 0.71875-0.46875 1.0312-0.30469 0.3125-0.71484 0.46875-1.2344 0.46875-0.085938 0-0.23438-0.015625-0.45312-0.046875-0.09375 0-0.21875 0.085937-0.375 0.25-0.14844 0.15625-0.21875 0.28125-0.21875 0.375 0 0.10547 0.11328 0.18359 0.34375 0.23438 0.14453 0.03125 0.30469 0.046875 0.48438 0.046875 0.84375 0 1.4141 0.046875 1.7188 0.14062 0.48828 0.15625 0.73438 0.48438 0.73438 0.98438 0 0.51953-0.29297 0.92969-0.875 1.2344-0.57422 0.30078-1.1523 0.45312-1.7344 0.45312-0.53125 0-0.95312-0.10938-1.2656-0.32812-0.3125-0.21094-0.46875-0.43359-0.46875-0.67188 0-0.11719 0.039063-0.23047 0.125-0.34375 0.082031-0.11719 0.24219-0.28125 0.48438-0.5l0.32812-0.28125 0.0625-0.0625c-0.15625-0.0625-0.27344-0.11719-0.34375-0.17188-0.125-0.10156-0.1875-0.21875-0.1875-0.34375s0.050781-0.25781 0.15625-0.40625c0.11328-0.14453 0.35156-0.37891 0.71875-0.70312zm0.9375-0.09375c0.17578 0 0.32812-0.050781 0.45312-0.15625 0.1875-0.15625 0.28125-0.42578 0.28125-0.8125 0-0.3125-0.078125-0.66016-0.23438-1.0469-0.15625-0.38281-0.41797-0.57812-0.78125-0.57812-0.32422 0-0.54297 0.15234-0.65625 0.45312-0.0625 0.15625-0.09375 0.35547-0.09375 0.59375 0 0.39844 0.09375 0.75781 0.28125 1.0781 0.1875 0.3125 0.4375 0.46875 0.75 0.46875z"
             id="path263" />
        </g>
      </g>
    </g>
    <g
       transform="matrix(.35278 0 0 .35278 4.6884 -52.808)"
       clip-path="url(#clip17)"
       id="g277">
      <g
         id="g275">
        <g
           transform="translate(244.32 491.84)"
           id="g273">
          <path
             d="m2.4844-4.6094c0.40625 0 0.75391 0.10938 1.0469 0.32812 0.30078 0.21094 0.45312 0.4375 0.45312 0.6875 0 0.10547-0.042969 0.20312-0.125 0.29688-0.074219 0.09375-0.1875 0.14062-0.34375 0.14062-0.11719 0-0.21484-0.035156-0.29688-0.10938-0.085938-0.082031-0.14844-0.20312-0.1875-0.35938l-0.0625-0.23438c-0.042969-0.16406-0.11719-0.28516-0.21875-0.35938-0.10547-0.070312-0.24609-0.10938-0.42188-0.10938-0.375 0-0.69531 0.16797-0.95312 0.5-0.25 0.32422-0.375 0.75-0.375 1.2812 0 0.49219 0.14062 0.93359 0.42188 1.3281 0.28125 0.38672 0.66016 0.57812 1.1406 0.57812 0.34375 0 0.64453-0.10938 0.90625-0.32812 0.15625-0.125 0.32812-0.32812 0.51562-0.60938l0.125 0.09375c-0.17969 0.38672-0.37109 0.69531-0.57812 0.92188-0.39844 0.4375-0.85547 0.65625-1.375 0.65625-0.5 0-0.94922-0.19531-1.3438-0.59375-0.38672-0.40625-0.57812-0.95312-0.57812-1.6406 0-0.67578 0.21094-1.2539 0.64062-1.7344 0.42578-0.48828 0.96094-0.73438 1.6094-0.73438z"
             id="path271" />
        </g>
      </g>
    </g>
    <g
       id="g327">
      <g
         transform="matrix(.35278 0 0 .35278 4.6884 -52.808)"
         id="g283">
        <g
           transform="translate(248.64 491.84)"
           id="g281">
          <path
             d="m2.2969-4.5781c0.45703 0 0.85938 0.16406 1.2031 0.48438 0.34375 0.3125 0.51562 0.76172 0.51562 1.3438h-3.1094c0.039062 0.75 0.21094 1.2969 0.51562 1.6406 0.3125 0.34375 0.67969 0.51562 1.1094 0.51562 0.33203 0 0.61328-0.085938 0.84375-0.26562 0.23828-0.17578 0.45703-0.42578 0.65625-0.75l0.17188 0.046875c-0.125 0.41797-0.375 0.80469-0.75 1.1562-0.36719 0.35547-0.8125 0.53125-1.3438 0.53125-0.60547 0-1.0742-0.22656-1.4062-0.6875-0.33594-0.46875-0.5-1.0039-0.5-1.6094 0-0.65625 0.19141-1.2188 0.57812-1.6875 0.38281-0.47656 0.89062-0.71875 1.5156-0.71875zm-0.29688 0.35938c-0.36719 0-0.64844 0.16406-0.84375 0.48438-0.10547 0.17969-0.17969 0.40234-0.21875 0.67188h2.0625c-0.042969-0.33203-0.10547-0.57812-0.1875-0.73438-0.16797-0.28125-0.4375-0.42188-0.8125-0.42188z"
             id="path279" />
        </g>
      </g>
      <g
         transform="matrix(.35278 0 0 .35278 4.6884 -52.808)"
         id="g289">
        <g
           transform="translate(253.2 491.84)"
           id="g287">
          <path
             d="m0.1875-0.14062c0.22656-0.03125 0.39062-0.085937 0.48438-0.17188 0.09375-0.082031 0.14062-0.27344 0.14062-0.57812v-2.4688c0-0.20703-0.023438-0.35156-0.0625-0.4375-0.0625-0.125-0.19531-0.1875-0.39062-0.1875h-0.078125c-0.03125 0-0.074219 0.00781-0.125 0.015625v-0.17188c0.13281-0.039063 0.45312-0.14062 0.95312-0.29688l0.45312-0.15625c0.03125 0 0.046875 0.011719 0.046875 0.03125v0.0625 0.71875c0.30078-0.28125 0.53516-0.47266 0.70312-0.57812 0.25781-0.15625 0.52344-0.23438 0.79688-0.23438 0.21875 0 0.42188 0.0625 0.60938 0.1875 0.35156 0.25 0.53125 0.6875 0.53125 1.3125v2.2812c0 0.24219 0.046875 0.41406 0.14062 0.51562 0.09375 0.10547 0.25 0.15625 0.46875 0.15625v0.14062h-2.0781v-0.14062c0.22656-0.03125 0.39062-0.09375 0.48438-0.1875 0.09375-0.10156 0.14062-0.32031 0.14062-0.65625v-2.0781c0-0.28125-0.054688-0.50781-0.15625-0.6875-0.10547-0.1875-0.29297-0.28125-0.5625-0.28125-0.19922 0-0.39844 0.0625-0.59375 0.1875-0.11719 0.074219-0.25781 0.19922-0.42188 0.375v2.7344c0 0.23047 0.050781 0.38672 0.15625 0.46875 0.10156 0.085937 0.26562 0.125 0.48438 0.125v0.14062h-2.125z"
             id="path285" />
        </g>
      </g>
      <g
         transform="matrix(.35278 0 0 .35278 4.6884 -52.808)"
         id="g295">
        <g
           transform="translate(258 491.84)"
           id="g293">
          <path
             d="m2.5469-4.5v0.34375h-1l-0.015625 2.8125c0 0.25 0.023438 0.4375 0.078125 0.5625 0.070313 0.23047 0.22266 0.34375 0.45312 0.34375 0.11328 0 0.21094-0.023438 0.29688-0.078125 0.09375-0.0625 0.19141-0.14844 0.29688-0.26562l0.125 0.10938-0.09375 0.14062c-0.17969 0.23047-0.35938 0.39062-0.54688 0.48438s-0.37109 0.14062-0.54688 0.14062c-0.38672 0-0.64844-0.17188-0.78125-0.51562-0.074219-0.1875-0.10938-0.44141-0.10938-0.76562v-2.9688h-0.53125c-0.023437-0.007812-0.039063-0.015625-0.046875-0.015625v-0.046875c0-0.03125 0.003906-0.054688 0.015625-0.078125 0.019531-0.019531 0.066406-0.0625 0.14062-0.125 0.22656-0.1875 0.39062-0.33594 0.48438-0.45312 0.10156-0.11328 0.33594-0.41406 0.70312-0.90625 0.039062 0 0.066406 0.00781 0.078125 0.015625 0.00781 0 0.015625 0.023437 0.015625 0.0625v1.2031z"
             id="path291" />
        </g>
      </g>
      <g
         transform="matrix(.35278 0 0 .35278 4.6884 -52.808)"
         id="g301">
        <g
           transform="translate(260.88 491.84)"
           id="g299">
          <path
             d="m2.2969-4.5781c0.45703 0 0.85938 0.16406 1.2031 0.48438 0.34375 0.3125 0.51562 0.76172 0.51562 1.3438h-3.1094c0.039062 0.75 0.21094 1.2969 0.51562 1.6406 0.3125 0.34375 0.67969 0.51562 1.1094 0.51562 0.33203 0 0.61328-0.085938 0.84375-0.26562 0.23828-0.17578 0.45703-0.42578 0.65625-0.75l0.17188 0.046875c-0.125 0.41797-0.375 0.80469-0.75 1.1562-0.36719 0.35547-0.8125 0.53125-1.3438 0.53125-0.60547 0-1.0742-0.22656-1.4062-0.6875-0.33594-0.46875-0.5-1.0039-0.5-1.6094 0-0.65625 0.19141-1.2188 0.57812-1.6875 0.38281-0.47656 0.89062-0.71875 1.5156-0.71875zm-0.29688 0.35938c-0.36719 0-0.64844 0.16406-0.84375 0.48438-0.10547 0.17969-0.17969 0.40234-0.21875 0.67188h2.0625c-0.042969-0.33203-0.10547-0.57812-0.1875-0.73438-0.16797-0.28125-0.4375-0.42188-0.8125-0.42188z"
             id="path297" />
        </g>
      </g>
      <g
         transform="matrix(.35278 0 0 .35278 4.6884 -52.808)"
         id="g307">
        <g
           transform="translate(265.44 491.84)"
           id="g305">
          <path
             d="m0.046875-0.15625c0.30078-0.03125 0.5-0.082031 0.59375-0.15625 0.09375-0.082031 0.14062-0.25391 0.14062-0.51562v-2.2031c0-0.32031-0.03125-0.55078-0.09375-0.6875-0.054688-0.14453-0.16406-0.21875-0.32812-0.21875-0.03125 0-0.074219 0.00781-0.125 0.015625-0.054687 0.011719-0.10938 0.023437-0.17188 0.03125v-0.15625c0.1875-0.0625 0.37891-0.125 0.57812-0.1875 0.19531-0.070313 0.33203-0.125 0.40625-0.15625 0.16406-0.0625 0.33203-0.13281 0.5-0.21875 0.019531 0 0.03125 0.011719 0.03125 0.03125 0.00781 0.011719 0.015625 0.042969 0.015625 0.09375v0.8125c0.20703-0.28906 0.40625-0.51562 0.59375-0.67188 0.19531-0.16406 0.39844-0.25 0.60938-0.25 0.16406 0 0.30078 0.054688 0.40625 0.15625 0.10156 0.09375 0.15625 0.21484 0.15625 0.35938 0 0.13672-0.042969 0.25-0.125 0.34375-0.074219 0.085937-0.17188 0.125-0.29688 0.125-0.11719 0-0.23438-0.054687-0.35938-0.17188-0.125-0.11328-0.22656-0.17188-0.29688-0.17188-0.11719 0-0.25781 0.09375-0.42188 0.28125-0.16797 0.1875-0.25 0.38281-0.25 0.57812v2.1875c0 0.28125 0.0625 0.48047 0.1875 0.59375 0.13281 0.10547 0.35156 0.15625 0.65625 0.15625v0.15625h-2.4062z"
             id="path303" />
        </g>
      </g>
      <g
         transform="matrix(.35278 0 0 .35278 4.6884 -52.808)"
         id="g313">
        <g
           transform="translate(270.96 491.84)"
           id="g311">
          <path
             d="m2.5469-4.5v0.34375h-1l-0.015625 2.8125c0 0.25 0.023438 0.4375 0.078125 0.5625 0.070313 0.23047 0.22266 0.34375 0.45312 0.34375 0.11328 0 0.21094-0.023438 0.29688-0.078125 0.09375-0.0625 0.19141-0.14844 0.29688-0.26562l0.125 0.10938-0.09375 0.14062c-0.17969 0.23047-0.35938 0.39062-0.54688 0.48438s-0.37109 0.14062-0.54688 0.14062c-0.38672 0-0.64844-0.17188-0.78125-0.51562-0.074219-0.1875-0.10938-0.44141-0.10938-0.76562v-2.9688h-0.53125c-0.023437-0.007812-0.039063-0.015625-0.046875-0.015625v-0.046875c0-0.03125 0.003906-0.054688 0.015625-0.078125 0.019531-0.019531 0.066406-0.0625 0.14062-0.125 0.22656-0.1875 0.39062-0.33594 0.48438-0.45312 0.10156-0.11328 0.33594-0.41406 0.70312-0.90625 0.039062 0 0.066406 0.00781 0.078125 0.015625 0.00781 0 0.015625 0.023437 0.015625 0.0625v1.2031z"
             id="path309" />
        </g>
      </g>
      <g
         transform="matrix(.35278 0 0 .35278 4.6884 -52.808)"
         id="g319">
        <g
           transform="translate(273.84 491.84)"
           id="g317">
          <path
             d="m0.046875-0.15625c0.30078-0.03125 0.5-0.082031 0.59375-0.15625 0.09375-0.082031 0.14062-0.25391 0.14062-0.51562v-2.2031c0-0.32031-0.03125-0.55078-0.09375-0.6875-0.054688-0.14453-0.16406-0.21875-0.32812-0.21875-0.03125 0-0.074219 0.00781-0.125 0.015625-0.054687 0.011719-0.10938 0.023437-0.17188 0.03125v-0.15625c0.1875-0.0625 0.37891-0.125 0.57812-0.1875 0.19531-0.070313 0.33203-0.125 0.40625-0.15625 0.16406-0.0625 0.33203-0.13281 0.5-0.21875 0.019531 0 0.03125 0.011719 0.03125 0.03125 0.00781 0.011719 0.015625 0.042969 0.015625 0.09375v0.8125c0.20703-0.28906 0.40625-0.51562 0.59375-0.67188 0.19531-0.16406 0.39844-0.25 0.60938-0.25 0.16406 0 0.30078 0.054688 0.40625 0.15625 0.10156 0.09375 0.15625 0.21484 0.15625 0.35938 0 0.13672-0.042969 0.25-0.125 0.34375-0.074219 0.085937-0.17188 0.125-0.29688 0.125-0.11719 0-0.23438-0.054687-0.35938-0.17188-0.125-0.11328-0.22656-0.17188-0.29688-0.17188-0.11719 0-0.25781 0.09375-0.42188 0.28125-0.16797 0.1875-0.25 0.38281-0.25 0.57812v2.1875c0 0.28125 0.0625 0.48047 0.1875 0.59375 0.13281 0.10547 0.35156 0.15625 0.65625 0.15625v0.15625h-2.4062z"
             id="path315" />
        </g>
      </g>
      <g
         transform="matrix(.35278 0 0 .35278 4.6884 -52.808)"
         id="g325">
        <g
           transform="translate(277.2 491.84)"
           id="g323">
          <path
             d="m2.8594-2.7031c-0.36719 0.125-0.67188 0.26172-0.92188 0.40625-0.46875 0.29297-0.70312 0.62109-0.70312 0.98438 0 0.30469 0.097656 0.52344 0.29688 0.65625 0.125 0.09375 0.26562 0.14062 0.42188 0.14062 0.21875 0 0.42188-0.054687 0.60938-0.17188 0.19531-0.125 0.29688-0.28125 0.29688-0.46875zm-2.5 1.7344c0-0.47656 0.23828-0.875 0.71875-1.1875 0.30078-0.19531 0.89453-0.46094 1.7812-0.79688v-0.40625c0-0.33203-0.03125-0.56641-0.09375-0.70312-0.10547-0.21875-0.33594-0.32812-0.6875-0.32812-0.16797 0-0.32422 0.042969-0.46875 0.125-0.15625 0.09375-0.23438 0.21875-0.23438 0.375 0 0.03125 0.00781 0.09375 0.03125 0.1875 0.019531 0.09375 0.03125 0.15625 0.03125 0.1875 0 0.17969-0.0625 0.30469-0.1875 0.375-0.074219 0.042969-0.15625 0.0625-0.25 0.0625-0.14844 0-0.26172-0.046875-0.34375-0.14062-0.074219-0.09375-0.10938-0.20312-0.10938-0.32812 0-0.21875 0.14062-0.45312 0.42188-0.70312s0.69531-0.375 1.25-0.375c0.625 0 1.0508 0.20312 1.2812 0.60938 0.11328 0.23047 0.17188 0.55859 0.17188 0.98438v1.9531c0 0.1875 0.015625 0.32031 0.046875 0.39062 0.039062 0.125 0.12891 0.1875 0.26562 0.1875 0.070313 0 0.12891-0.007812 0.17188-0.03125 0.050781-0.019531 0.14062-0.070312 0.26562-0.15625v0.25c-0.10547 0.125-0.21875 0.23047-0.34375 0.3125-0.17969 0.125-0.35938 0.1875-0.54688 0.1875-0.23047 0-0.39844-0.070312-0.5-0.21875-0.09375-0.14453-0.14844-0.31641-0.15625-0.51562-0.24219 0.21875-0.44922 0.38281-0.625 0.48438-0.30469 0.17969-0.58594 0.26562-0.84375 0.26562-0.28125 0-0.52734-0.097656-0.73438-0.29688-0.21094-0.19531-0.3125-0.44531-0.3125-0.75z"
             id="path321" />
        </g>
      </g>
    </g>
    <g
       transform="matrix(.35278 0 0 .35278 4.6884 -52.808)"
       clip-path="url(#clip18)"
       id="g335">
      <g
         id="g333">
        <g
           transform="translate(281.52 491.84)"
           id="g331">
          <path
             d="m1.0938-6.2969c0-0.14453 0.046875-0.26562 0.14062-0.35938 0.10156-0.10156 0.22656-0.15625 0.375-0.15625 0.13281 0 0.25 0.054688 0.34375 0.15625 0.10156 0.09375 0.15625 0.21484 0.15625 0.35938 0 0.13672-0.054687 0.25781-0.15625 0.35938-0.09375 0.09375-0.21094 0.14062-0.34375 0.14062-0.14844 0-0.27344-0.046875-0.375-0.14062-0.09375-0.10156-0.14062-0.22266-0.14062-0.35938zm-1.2656 7.5312c0.16797 0 0.32812 0.10156 0.48438 0.3125 0.16406 0.20703 0.3125 0.3125 0.4375 0.3125 0.20703 0 0.34375-0.12109 0.40625-0.35938 0.039062-0.14844 0.066406-0.38672 0.078125-0.71875v-0.89062-3.2188c0-0.21875-0.023437-0.37891-0.0625-0.48438-0.042969-0.10156-0.14062-0.15625-0.29688-0.15625-0.042969 0-0.10156 0.011719-0.17188 0.03125-0.074219 0.011719-0.15234 0.027344-0.23438 0.046875v-0.14062l0.42188-0.14062c0.10156-0.03125 0.23438-0.070313 0.39062-0.125 0.16406-0.0625 0.32031-0.125 0.46875-0.1875l0.28125-0.09375c0.019531 0.023437 0.03125 0.042969 0.03125 0.0625v4.5156c0 0.5625-0.074219 1-0.21875 1.3125-0.26172 0.58203-0.76172 0.875-1.5 0.875-0.24219 0-0.45312-0.054688-0.64062-0.15625-0.1875-0.09375-0.28125-0.21875-0.28125-0.375 0-0.11719 0.039063-0.21484 0.10938-0.29688 0.074219-0.085937 0.17188-0.125 0.29688-0.125z"
             id="path329" />
        </g>
      </g>
    </g>
    <g
       id="g367">
      <g
         transform="matrix(.35278 0 0 .35278 4.6884 -52.808)"
         id="g341">
        <g
           transform="translate(283.92 491.84)"
           id="g339">
          <path
             d="m2.2969-4.5781c0.45703 0 0.85938 0.16406 1.2031 0.48438 0.34375 0.3125 0.51562 0.76172 0.51562 1.3438h-3.1094c0.039062 0.75 0.21094 1.2969 0.51562 1.6406 0.3125 0.34375 0.67969 0.51562 1.1094 0.51562 0.33203 0 0.61328-0.085938 0.84375-0.26562 0.23828-0.17578 0.45703-0.42578 0.65625-0.75l0.17188 0.046875c-0.125 0.41797-0.375 0.80469-0.75 1.1562-0.36719 0.35547-0.8125 0.53125-1.3438 0.53125-0.60547 0-1.0742-0.22656-1.4062-0.6875-0.33594-0.46875-0.5-1.0039-0.5-1.6094 0-0.65625 0.19141-1.2188 0.57812-1.6875 0.38281-0.47656 0.89062-0.71875 1.5156-0.71875zm-0.29688 0.35938c-0.36719 0-0.64844 0.16406-0.84375 0.48438-0.10547 0.17969-0.17969 0.40234-0.21875 0.67188h2.0625c-0.042969-0.33203-0.10547-0.57812-0.1875-0.73438-0.16797-0.28125-0.4375-0.42188-0.8125-0.42188z"
             id="path337" />
        </g>
      </g>
      <g
         transform="matrix(.35278 0 0 .35278 4.6884 -52.808)"
         id="g347">
        <g
           transform="translate(288.48 491.84)"
           id="g345">
          <path
             d="m2.4844-4.6094c0.40625 0 0.75391 0.10938 1.0469 0.32812 0.30078 0.21094 0.45312 0.4375 0.45312 0.6875 0 0.10547-0.042969 0.20312-0.125 0.29688-0.074219 0.09375-0.1875 0.14062-0.34375 0.14062-0.11719 0-0.21484-0.035156-0.29688-0.10938-0.085938-0.082031-0.14844-0.20312-0.1875-0.35938l-0.0625-0.23438c-0.042969-0.16406-0.11719-0.28516-0.21875-0.35938-0.10547-0.070312-0.24609-0.10938-0.42188-0.10938-0.375 0-0.69531 0.16797-0.95312 0.5-0.25 0.32422-0.375 0.75-0.375 1.2812 0 0.49219 0.14062 0.93359 0.42188 1.3281 0.28125 0.38672 0.66016 0.57812 1.1406 0.57812 0.34375 0 0.64453-0.10938 0.90625-0.32812 0.15625-0.125 0.32812-0.32812 0.51562-0.60938l0.125 0.09375c-0.17969 0.38672-0.37109 0.69531-0.57812 0.92188-0.39844 0.4375-0.85547 0.65625-1.375 0.65625-0.5 0-0.94922-0.19531-1.3438-0.59375-0.38672-0.40625-0.57812-0.95312-0.57812-1.6406 0-0.67578 0.21094-1.2539 0.64062-1.7344 0.42578-0.48828 0.96094-0.73438 1.6094-0.73438z"
             id="path343" />
        </g>
      </g>
      <g
         transform="matrix(.35278 0 0 .35278 4.6884 -52.808)"
         id="g353">
        <g
           transform="translate(293.04 491.84)"
           id="g351">
          <path
             d="m2.5469-4.5v0.34375h-1l-0.015625 2.8125c0 0.25 0.023438 0.4375 0.078125 0.5625 0.070313 0.23047 0.22266 0.34375 0.45312 0.34375 0.11328 0 0.21094-0.023438 0.29688-0.078125 0.09375-0.0625 0.19141-0.14844 0.29688-0.26562l0.125 0.10938-0.09375 0.14062c-0.17969 0.23047-0.35938 0.39062-0.54688 0.48438s-0.37109 0.14062-0.54688 0.14062c-0.38672 0-0.64844-0.17188-0.78125-0.51562-0.074219-0.1875-0.10938-0.44141-0.10938-0.76562v-2.9688h-0.53125c-0.023437-0.007812-0.039063-0.015625-0.046875-0.015625v-0.046875c0-0.03125 0.003906-0.054688 0.015625-0.078125 0.019531-0.019531 0.066406-0.0625 0.14062-0.125 0.22656-0.1875 0.39062-0.33594 0.48438-0.45312 0.10156-0.11328 0.33594-0.41406 0.70312-0.90625 0.039062 0 0.066406 0.00781 0.078125 0.015625 0.00781 0 0.015625 0.023437 0.015625 0.0625v1.2031z"
             id="path349" />
        </g>
      </g>
      <g
         transform="matrix(.35278 0 0 .35278 4.6884 -52.808)"
         id="g359">
        <g
           transform="translate(295.92 491.84)"
           id="g357">
          <path
             d="m0.25-2.2656c0-0.64453 0.20312-1.1914 0.60938-1.6406 0.41406-0.44531 0.95312-0.67188 1.6094-0.67188 0.63281 0 1.1641 0.21484 1.5938 0.64062 0.42578 0.41797 0.64062 0.98047 0.64062 1.6875 0 0.64844-0.21094 1.2109-0.625 1.6875-0.40625 0.48047-0.9375 0.71875-1.5938 0.71875-0.625 0-1.1562-0.22656-1.5938-0.6875-0.42969-0.45703-0.64062-1.0352-0.64062-1.7344zm2.0781-2.0156c-0.26172 0-0.48438 0.085938-0.67188 0.25-0.32422 0.29297-0.48438 0.80469-0.48438 1.5312 0 0.58594 0.12891 1.125 0.39062 1.625 0.25781 0.5 0.625 0.75 1.0938 0.75 0.36328 0 0.64453-0.16406 0.84375-0.5 0.19531-0.34375 0.29688-0.78516 0.29688-1.3281 0-0.5625-0.13281-1.0859-0.39062-1.5781-0.25-0.5-0.60938-0.75-1.0781-0.75z"
             id="path355" />
        </g>
      </g>
      <g
         transform="matrix(.35278 0 0 .35278 4.6884 -52.808)"
         id="g365">
        <g
           transform="translate(300.72 491.84)"
           id="g363">
          <path
             d="m0.046875-0.15625c0.30078-0.03125 0.5-0.082031 0.59375-0.15625 0.09375-0.082031 0.14062-0.25391 0.14062-0.51562v-2.2031c0-0.32031-0.03125-0.55078-0.09375-0.6875-0.054688-0.14453-0.16406-0.21875-0.32812-0.21875-0.03125 0-0.074219 0.00781-0.125 0.015625-0.054687 0.011719-0.10938 0.023437-0.17188 0.03125v-0.15625c0.1875-0.0625 0.37891-0.125 0.57812-0.1875 0.19531-0.070313 0.33203-0.125 0.40625-0.15625 0.16406-0.0625 0.33203-0.13281 0.5-0.21875 0.019531 0 0.03125 0.011719 0.03125 0.03125 0.00781 0.011719 0.015625 0.042969 0.015625 0.09375v0.8125c0.20703-0.28906 0.40625-0.51562 0.59375-0.67188 0.19531-0.16406 0.39844-0.25 0.60938-0.25 0.16406 0 0.30078 0.054688 0.40625 0.15625 0.10156 0.09375 0.15625 0.21484 0.15625 0.35938 0 0.13672-0.042969 0.25-0.125 0.34375-0.074219 0.085937-0.17188 0.125-0.29688 0.125-0.11719 0-0.23438-0.054687-0.35938-0.17188-0.125-0.11328-0.22656-0.17188-0.29688-0.17188-0.11719 0-0.25781 0.09375-0.42188 0.28125-0.16797 0.1875-0.25 0.38281-0.25 0.57812v2.1875c0 0.28125 0.0625 0.48047 0.1875 0.59375 0.13281 0.10547 0.35156 0.15625 0.65625 0.15625v0.15625h-2.4062z"
             id="path361" />
        </g>
      </g>
    </g>
    <g
       transform="matrix(.35278 0 0 .35278 4.6884 -52.808)"
       clip-path="url(#clip19)"
       id="g375">
      <g
         id="g373">
        <g
           transform="translate(303.84 491.84)"
           id="g371">
          <path
             d="m0.14062-4.4844h2.0625v0.14062c-0.16797 0.011719-0.28906 0.027344-0.35938 0.046875-0.15625 0.042969-0.23438 0.125-0.23438 0.25 0 0.054687 0.00391 0.10547 0.015625 0.15625 0.019531 0.042969 0.050781 0.10938 0.09375 0.20312l1.1406 2.5312 0.92188-2.5625c0.00781-0.019531 0.023438-0.078125 0.046875-0.17188 0.019531-0.09375 0.03125-0.15625 0.03125-0.1875 0-0.082031-0.03125-0.14062-0.09375-0.17188-0.054687-0.039062-0.125-0.066406-0.21875-0.078125l-0.14062-0.015625v-0.14062h1.3281v0.14062c-0.125 0.023438-0.22656 0.070312-0.29688 0.14062-0.0625 0.074219-0.12109 0.17969-0.17188 0.3125l-1.5312 4.0781c-0.27344 0.69531-0.53125 1.2031-0.78125 1.5156-0.24219 0.32031-0.54688 0.48438-0.92188 0.48438-0.17969 0-0.35156-0.046875-0.51562-0.14062-0.15625-0.085937-0.23438-0.23047-0.23438-0.4375 0-0.125 0.046875-0.23047 0.14062-0.3125 0.10156-0.085937 0.22656-0.125 0.375-0.125 0.082031 0 0.20703 0.03125 0.375 0.09375 0.16406 0.0625 0.28516 0.09375 0.35938 0.09375 0.17578 0 0.36328-0.21484 0.5625-0.64062 0.20703-0.41797 0.3125-0.69922 0.3125-0.84375 0-0.03125-0.00781-0.066406-0.015625-0.10938-0.011719-0.039063-0.023437-0.078125-0.03125-0.10938l-1.5625-3.375c-0.11719-0.25-0.21484-0.41016-0.29688-0.48438-0.085938-0.070313-0.20312-0.11719-0.35938-0.14062z"
             id="path369" />
        </g>
      </g>
    </g>
    <path
       d="m97.313 117.57 9.5677-7.7046h0.0854v0.0841l-9.5677 7.7046h-0.0854v-0.0841h-0.0841zm9.1447-7.9596 1.101-0.16812-0.50849 1.0156-0.59256-0.84749"
       id="path377" />
    <path
       d="m97.313 117.57 9.5677-7.7046h0.0854v0.0841l-9.5677 7.7046h-0.0854v-0.0841h-0.0841zm9.1447-7.9596 1.101-0.16812-0.5085 1.0156zm0 0"
       fill="none"
       stroke="#000"
       stroke-linecap="round"
       stroke-linejoin="round"
       stroke-miterlimit="10"
       stroke-width=".084667"
       id="path379" />
    <path
       d="m61.585 89.798 1.2692 0.5085-0.0841 0.33899-1.2706-0.59255zm2.2007 0.84749 1.2706 0.59256-0.0854 0.25356-1.2692-0.50849zm2.2021 0.93018 1.2692 0.59394-0.0841 0.33899-1.2706-0.59393zm2.2007 1.017 1.2706 0.50711-0.0854 0.25494-1.2692-0.5085zm2.2007 0.84611 1.2706 0.59256-0.0841 0.25493-1.2706-0.50849zm2.2021 0.93155 1.2692 0.59256-0.16812 0.25356-1.1865-0.50712zm2.2007 0.93156 1.2706 0.59255-0.0854 0.25356-1.2692-0.50712zm2.2021 0.93155 1.2692 0.59256-0.1695 0.25356-1.1851-0.5085zm2.2007 0.93155 1.2706 0.59256-0.1695 0.25356-1.1851-0.5085 0.0841-0.33762"
       id="path381" />
    <path
       d="m61.585 89.798 1.2692 0.5085-0.0841 0.339-1.2706-0.59256zm2.2007 0.8475 1.2706 0.59255-0.0854 0.25356-1.2692-0.50849zm2.2021 0.93017 1.2692 0.59394-0.0841 0.33899-1.2706-0.59393zm2.2007 1.017 1.2706 0.50711-0.0854 0.25494-1.2692-0.50849zm2.2007 0.84611 1.2706 0.59256-0.0841 0.25494-1.2706-0.5085zm2.2021 0.93156 1.2692 0.59255-0.16812 0.25356-1.1865-0.50712zm2.2007 0.93155 1.2706 0.59255-0.0854 0.25356-1.2692-0.50711zm2.2021 0.93155 1.2692 0.59256-0.16949 0.25356-1.1851-0.5085zm2.2007 0.93156 1.2706 0.59255-0.1695 0.25356-1.1851-0.5085zm0 0"
       fill="none"
       stroke="#000"
       stroke-linecap="round"
       stroke-linejoin="round"
       stroke-miterlimit="10"
       stroke-width=".084667"
       id="path383" />
    <path
       d="m81.058 97.926 1.2692 0.59394-0.16812 0.25356-1.2706-0.5085zm2.2007 0.93293 1.2706 0.50712-0.1695 0.339-1.2706-0.5085zm2.2021 0.93018 1.2692 0.5085-0.1695 0.33899-1.2692-0.50849zm2.2007 0.93154 1.2706 0.5085-0.1695 0.33762-1.2706-0.50712zm2.2021 0.93156 1.2692 0.50711-0.16949 0.25494-1.2692-0.50849zm2.2007 0.84611 1.2706 0.59394-0.1695 0.25355-1.1851-0.50849zm2.2021 0.93156 1.2692 0.50849-0.1695 0.33762-1.2692-0.50712zm2.2007 0.93155 1.2706 0.5085-0.1695 0.33899-1.2706-0.50849zm2.2007 0.93156 1.2706 0.50711-0.0841 0.339-1.2706-0.50712zm2.2021 0.93155 1.2692 0.50712-0.16812 0.25493-1.1865-0.50849zm2.2007 0.84611 1.2706 0.59256-0.1695 0.25356-1.1851-0.50712zm2.2021 0.93156 1.2692 0.50711-0.0841 0.339-1.2706-0.50712zm2.2007 0.93155 1.2706 0.5085-0.0854 0.33762-1.2692-0.5085zm2.2021 0.93155 1.2692 0.50712-0.0841 0.339-1.2706-0.5085zm2.2007 0.93018 1.2706 0.5085-0.0854 0.25493-1.2692-0.50849zm2.2007 0.8475 1.2706 0.59255-0.0841 0.25356-1.2706-0.50712zm2.2021 0.93155 1.2706 0.50712-0.0854 0.33899-1.2706-0.50849zm2.2007 0.93017 1.2706 0.5085-0.0841 0.339-1.2706-0.5085zm2.2021 0.93156 1.2692 0.50849-0.0841 0.339-1.2706-0.5085zm2.2007 0.93155 1.2706 0.5085-0.0854 0.33899-1.2692-0.59393zm2.2021 0.84749 1.2692 0.59256-0.0841 0.25356-1.2706-0.5085zm2.2862 0.93018 1.1851 0.5085-0.0854 0.339-1.2692-0.5085zm2.2007 0.93156 1.1851 0.50849-0.0841 0.339-1.2706-0.5085zm2.1167 0.93155 1.2706 0.50849-0.0854 0.33762-1.2692-0.50711zm2.2862 0.93155 1.1851 0.5085-0.0841 0.33762-1.2706-0.59256zm2.2007 0.84612 1.2706 0.59255-0.1695 0.25494-1.2706-0.5085zm2.2021 0.93155 1.1851 0.5085-0.0854 0.33899-1.2692-0.50849zm2.2007 0.93155 1.1851 0.5085-0.0841 0.33762-1.2706-0.50712zm2.2021 0.93156 1.2692 0.50712-0.1695 0.339-1.2692-0.50712zm2.2007 0.93155 1.2706 0.50712-0.1695 0.339-1.2706-0.59256zm2.2021 0.84612 1.2692 0.59255-0.1695 0.25356-1.2692-0.50711zm2.2007 0.93155 1.2706 0.5085-0.1695 0.33762-1.2706-0.50712zm2.2007 0.93155 1.2706 0.50712-0.16949 0.339-1.2692-0.5085zm2.2021 0.93156 1.2692 0.50712-0.16812 0.33899-1.2706-0.50712zm2.2007 0.93018 1.2706 0.50849-0.1695 0.339-1.2706-0.59256zm2.2021 0.84749 1.2692 0.59256-0.1695 0.25355-1.2692-0.50711zm2.2007 0.93155 1.2706 0.50712-0.1695 0.339-1.2706-0.5085zm2.2021 0.93018 1.2692 0.50849-0.1695 0.339-1.2692-0.50849zm2.2007 0.93293 1.2706 0.50712-0.1695 0.33899-1.2706-0.50849zm2.2007 0.93017 1.2706 0.5085-0.1695 0.339-1.1851-0.59394zm2.2021 0.8475 0.76206 0.33899-0.0854 0.33763-0.76206-0.33763 0.0854-0.33899"
       id="path385" />
    <path
       d="m81.058 97.926 1.2692 0.59394-0.16812 0.25356-1.2706-0.5085zm2.2007 0.93293 1.2706 0.50712-0.1695 0.339-1.2706-0.50849zm2.2021 0.93018 1.2692 0.5085-0.1695 0.339-1.2692-0.5085zm2.2007 0.93156 1.2706 0.50849-0.16949 0.33762-1.2706-0.50712zm2.2021 0.93155 1.2692 0.50712-0.1695 0.25493-1.2692-0.50849zm2.2007 0.84611 1.2706 0.59394-0.1695 0.25356-1.1851-0.5085zm2.2021 0.93156 1.2692 0.50849-0.16949 0.33762-1.2692-0.50712zm2.2007 0.93155 1.2706 0.5085-0.1695 0.33899-1.2706-0.50849zm2.2007 0.93156 1.2706 0.50712-0.0841 0.33899-1.2706-0.50712zm2.2021 0.93155 1.2692 0.50712-0.16812 0.25494-1.1865-0.5085zm2.2007 0.84612 1.2706 0.59255-0.1695 0.25356-1.1851-0.50712zm2.2021 0.93155 1.2692 0.50712-0.0841 0.33899-1.2706-0.50711zm2.2007 0.93155 1.2706 0.5085-0.0854 0.33762-1.2692-0.5085zm2.2021 0.93156 1.2692 0.50711-0.0841 0.339-1.2706-0.50849zm2.2007 0.93017 1.2706 0.5085-0.0854 0.25493-1.2692-0.50849zm2.2007 0.8475 1.2706 0.59255-0.0841 0.25356-1.2706-0.50712zm2.2021 0.93155 1.2706 0.50712-0.0854 0.339-1.2706-0.5085zm2.2007 0.93018 1.2706 0.50849-0.0841 0.339-1.2706-0.5085zm2.2021 0.93155 1.2692 0.5085-0.0841 0.33899-1.2706-0.50849zm2.2007 0.93155 1.2706 0.5085-0.0854 0.339-1.2692-0.59394zm2.2021 0.8475 1.2692 0.59255-0.0841 0.25356-1.2706-0.50849zm2.2862 0.93017 1.1851 0.5085-0.0854 0.339-1.2692-0.5085zm2.2007 0.93156 1.1851 0.50849-0.0841 0.339-1.2706-0.5085zm2.1167 0.93155 1.2706 0.5085-0.0854 0.33762-1.2692-0.50712zm2.2862 0.93156 1.1851 0.50849-0.0841 0.33762-1.2706-0.59255zm2.2007 0.84611 1.2706 0.59256-0.1695 0.25493-1.2706-0.50849zm2.2021 0.93155 1.1851 0.5085-0.0854 0.339-1.2692-0.5085zm2.2007 0.93156 1.1851 0.50849-0.0841 0.33762-1.2706-0.50711zm2.2021 0.93155 1.2692 0.50712-0.1695 0.339-1.2692-0.50712zm2.2007 0.93155 1.2706 0.50712-0.1695 0.339-1.2706-0.59256zm2.2021 0.84612 1.2692 0.59256-0.16949 0.25356-1.2692-0.50712zm2.2007 0.93156 1.2706 0.50849-0.1695 0.33762-1.2706-0.50712zm2.2007 0.93155 1.2706 0.50712-0.1695 0.339-1.2692-0.5085zm2.2021 0.93155 1.2692 0.50712-0.16812 0.339-1.2706-0.50712zm2.2007 0.93018 1.2706 0.50849-0.1695 0.339-1.2706-0.59255zm2.2021 0.84749 1.2692 0.59256-0.1695 0.25356-1.2692-0.50712zm2.2007 0.93155 1.2706 0.50712-0.1695 0.339-1.2706-0.50849zm2.2021 0.93018 1.2692 0.5085-0.1695 0.339-1.2692-0.5085zm2.2007 0.93293 1.2706 0.50712-0.1695 0.339-1.2706-0.50849zm2.2007 0.93018 1.2706 0.5085-0.1695 0.33899-1.1851-0.59393zm2.2021 0.84749 0.76206 0.339-0.0854 0.33762-0.76206-0.33762zm0 0"
       fill="none"
       stroke="#000"
       stroke-linecap="round"
       stroke-linejoin="round"
       stroke-miterlimit="10"
       stroke-width=".084667"
       id="path387" />
    <path
       d="m64.548 107.41-6.35-2.7092v-0.1695h0.0854l6.35 2.7947h0.0841l-0.0841 0.0841zm-6.35-2.2862-0.76205-0.8475 1.1851-0.0841-0.42306 0.93156"
       id="path389" />
    <path
       d="m64.548 107.41-6.35-2.7092v-0.1695h0.0854l6.35 2.7947h0.0841l-0.0841 0.0841zm-6.35-2.2862-0.76206-0.8475 1.1851-0.0841zm0 0"
       fill="none"
       stroke="#000"
       stroke-linecap="round"
       stroke-linejoin="round"
       stroke-miterlimit="10"
       stroke-width=".084667"
       id="path391" />
    <g
       transform="matrix(.35278 0 0 .35278 4.6884 -52.808)"
       clip-path="url(#clip20)"
       id="g399">
      <g
         id="g397">
        <g
           transform="translate(326.64 413.36)"
           id="g395">
          <path
             d="m1.5938-0.90625c0.082031 0.23047 0.20703 0.40234 0.375 0.51562 0.17578 0.10547 0.375 0.15625 0.59375 0.15625 0.35156 0 0.65625-0.17578 0.90625-0.53125 0.25-0.35156 0.375-0.84375 0.375-1.4688 0-0.59375-0.13281-1.0352-0.39062-1.3281-0.26172-0.30078-0.5625-0.45312-0.90625-0.45312-0.24219 0-0.46094 0.078125-0.65625 0.23438-0.19922 0.14844-0.29688 0.28906-0.29688 0.42188zm-1.5469 2.9219c0.30078-0.023437 0.49219-0.089844 0.57812-0.20312 0.082031-0.10547 0.125-0.27734 0.125-0.51562v-4.6875c0-0.25-0.03125-0.40625-0.09375-0.46875-0.054688-0.070313-0.16406-0.10938-0.32812-0.10938-0.042969 0-0.078125 0.00781-0.10938 0.015625h-0.125v-0.15625l0.45312-0.15625c0.019531 0 0.34766-0.10938 0.98438-0.32812 0.019531 0 0.03125 0.011719 0.03125 0.03125 0.00781 0.011719 0.015625 0.027344 0.015625 0.046875v0.65625c0.21875-0.21875 0.41016-0.37891 0.57812-0.48438 0.28906-0.17578 0.58594-0.26562 0.89062-0.26562 0.44531 0 0.83203 0.19531 1.1562 0.57812 0.33203 0.375 0.5 0.89844 0.5 1.5625 0 0.64844-0.19922 1.2344-0.59375 1.7656-0.38672 0.53125-0.875 0.79688-1.4688 0.79688-0.17969 0-0.33594-0.023438-0.46875-0.0625-0.21094-0.070312-0.40234-0.19531-0.57812-0.375v1.5938c0 0.33203 0.050781 0.53516 0.15625 0.60938 0.11328 0.070313 0.35156 0.11719 0.71875 0.14062v0.17188h-2.4219z"
             id="path393" />
        </g>
      </g>
    </g>
    <g
       id="g479">
      <g
         transform="matrix(.35278 0 0 .35278 4.6884 -52.808)"
         id="g405">
        <g
           transform="translate(331.44 413.36)"
           id="g403">
          <path
             d="m2.8594-2.7031c-0.36719 0.125-0.67188 0.26172-0.92188 0.40625-0.46875 0.29297-0.70312 0.62109-0.70312 0.98438 0 0.30469 0.097656 0.52344 0.29688 0.65625 0.125 0.09375 0.26562 0.14062 0.42188 0.14062 0.21875 0 0.42188-0.054687 0.60938-0.17188 0.19531-0.125 0.29688-0.28125 0.29688-0.46875zm-2.5 1.7344c0-0.47656 0.23828-0.875 0.71875-1.1875 0.30078-0.19531 0.89453-0.46094 1.7812-0.79688v-0.40625c0-0.33203-0.03125-0.56641-0.09375-0.70312-0.10547-0.21875-0.33594-0.32812-0.6875-0.32812-0.16797 0-0.32422 0.042969-0.46875 0.125-0.15625 0.09375-0.23438 0.21875-0.23438 0.375 0 0.03125 0.00781 0.09375 0.03125 0.1875 0.019531 0.09375 0.03125 0.15625 0.03125 0.1875 0 0.17969-0.0625 0.30469-0.1875 0.375-0.074219 0.042969-0.15625 0.0625-0.25 0.0625-0.14844 0-0.26172-0.046875-0.34375-0.14062-0.074219-0.09375-0.10938-0.20312-0.10938-0.32812 0-0.21875 0.14062-0.45312 0.42188-0.70312s0.69531-0.375 1.25-0.375c0.625 0 1.0508 0.20312 1.2812 0.60938 0.11328 0.23047 0.17188 0.55859 0.17188 0.98438v1.9531c0 0.1875 0.015625 0.32031 0.046875 0.39062 0.039062 0.125 0.12891 0.1875 0.26562 0.1875 0.070313 0 0.12891-0.007812 0.17188-0.03125 0.050781-0.019531 0.14062-0.070312 0.26562-0.15625v0.25c-0.10547 0.125-0.21875 0.23047-0.34375 0.3125-0.17969 0.125-0.35938 0.1875-0.54688 0.1875-0.23047 0-0.39844-0.070312-0.5-0.21875-0.09375-0.14453-0.14844-0.31641-0.15625-0.51562-0.24219 0.21875-0.44922 0.38281-0.625 0.48438-0.30469 0.17969-0.58594 0.26562-0.84375 0.26562-0.28125 0-0.52734-0.097656-0.73438-0.29688-0.21094-0.19531-0.3125-0.44531-0.3125-0.75z"
             id="path401" />
        </g>
      </g>
      <g
         transform="matrix(.35278 0 0 .35278 4.6884 -52.808)"
         id="g411">
        <g
           transform="translate(336 413.36)"
           id="g409">
          <path
             d="m0.046875-0.15625c0.30078-0.03125 0.5-0.082031 0.59375-0.15625 0.09375-0.082031 0.14062-0.25391 0.14062-0.51562v-2.2031c0-0.32031-0.03125-0.55078-0.09375-0.6875-0.054688-0.14453-0.16406-0.21875-0.32812-0.21875-0.03125 0-0.074219 0.00781-0.125 0.015625-0.054687 0.011719-0.10938 0.023437-0.17188 0.03125v-0.15625c0.1875-0.0625 0.37891-0.125 0.57812-0.1875 0.19531-0.070313 0.33203-0.125 0.40625-0.15625 0.16406-0.0625 0.33203-0.13281 0.5-0.21875 0.019531 0 0.03125 0.011719 0.03125 0.03125 0.00781 0.011719 0.015625 0.042969 0.015625 0.09375v0.8125c0.20703-0.28906 0.40625-0.51562 0.59375-0.67188 0.19531-0.16406 0.39844-0.25 0.60938-0.25 0.16406 0 0.30078 0.054688 0.40625 0.15625 0.10156 0.09375 0.15625 0.21484 0.15625 0.35938 0 0.13672-0.042969 0.25-0.125 0.34375-0.074219 0.085937-0.17188 0.125-0.29688 0.125-0.11719 0-0.23438-0.054687-0.35938-0.17188-0.125-0.11328-0.22656-0.17188-0.29688-0.17188-0.11719 0-0.25781 0.09375-0.42188 0.28125-0.16797 0.1875-0.25 0.38281-0.25 0.57812v2.1875c0 0.28125 0.0625 0.48047 0.1875 0.59375 0.13281 0.10547 0.35156 0.15625 0.65625 0.15625v0.15625h-2.4062z"
             id="path407" />
        </g>
      </g>
      <g
         transform="matrix(.35278 0 0 .35278 4.6884 -52.808)"
         id="g417">
        <g
           transform="translate(339.12 413.36)"
           id="g415">
          <path
             d="m2.5469-4.5v0.34375h-1l-0.015625 2.8125c0 0.25 0.023438 0.4375 0.078125 0.5625 0.070313 0.23047 0.22266 0.34375 0.45312 0.34375 0.11328 0 0.21094-0.023438 0.29688-0.078125 0.09375-0.0625 0.19141-0.14844 0.29688-0.26562l0.125 0.10938-0.09375 0.14062c-0.17969 0.23047-0.35938 0.39062-0.54688 0.48438s-0.37109 0.14062-0.54688 0.14062c-0.38672 0-0.64844-0.17188-0.78125-0.51562-0.074219-0.1875-0.10938-0.44141-0.10938-0.76562v-2.9688h-0.53125c-0.023437-0.007812-0.039063-0.015625-0.046875-0.015625v-0.046875c0-0.03125 0.003906-0.054688 0.015625-0.078125 0.019531-0.019531 0.066406-0.0625 0.14062-0.125 0.22656-0.1875 0.39062-0.33594 0.48438-0.45312 0.10156-0.11328 0.33594-0.41406 0.70312-0.90625 0.039062 0 0.066406 0.00781 0.078125 0.015625 0.00781 0 0.015625 0.023437 0.015625 0.0625v1.2031z"
             id="path413" />
        </g>
      </g>
      <g
         transform="matrix(.35278 0 0 .35278 4.6884 -52.808)"
         id="g423">
        <g
           transform="translate(342 413.36)"
           id="g421">
          <path
             d="m0.82812-6.2969c0-0.14453 0.046875-0.26562 0.14062-0.35938 0.09375-0.10156 0.21094-0.15625 0.35938-0.15625 0.13281 0 0.25391 0.054688 0.35938 0.15625 0.10156 0.09375 0.15625 0.21484 0.15625 0.35938 0 0.13672-0.054688 0.25781-0.15625 0.35938-0.10547 0.09375-0.22656 0.14062-0.35938 0.14062-0.14844 0-0.26562-0.046875-0.35938-0.14062-0.09375-0.10156-0.14062-0.22266-0.14062-0.35938zm-0.625 6.1562c0.34375-0.03125 0.55469-0.085937 0.64062-0.17188 0.09375-0.082031 0.14062-0.31641 0.14062-0.70312v-2.3281c0-0.20703-0.011719-0.35156-0.03125-0.4375-0.054687-0.13281-0.15625-0.20312-0.3125-0.20312-0.03125 0-0.070313 0.00781-0.10938 0.015625-0.03125 0-0.13281 0.027344-0.29688 0.078125v-0.15625l0.21875-0.0625c0.5625-0.1875 0.95703-0.32812 1.1875-0.42188 0.09375-0.039062 0.14844-0.0625 0.17188-0.0625 0.00781 0.023438 0.015625 0.046875 0.015625 0.078125v3.5c0 0.375 0.039063 0.60938 0.125 0.70312 0.09375 0.09375 0.29688 0.15234 0.60938 0.17188v0.14062h-2.3594z"
             id="path419" />
        </g>
      </g>
      <g
         transform="matrix(.35278 0 0 .35278 4.6884 -52.808)"
         id="g429">
        <g
           transform="translate(344.64 413.36)"
           id="g427">
          <path
             d="m2.4844-4.6094c0.40625 0 0.75391 0.10938 1.0469 0.32812 0.30078 0.21094 0.45312 0.4375 0.45312 0.6875 0 0.10547-0.042969 0.20312-0.125 0.29688-0.074219 0.09375-0.1875 0.14062-0.34375 0.14062-0.11719 0-0.21484-0.035156-0.29688-0.10938-0.085938-0.082031-0.14844-0.20312-0.1875-0.35938l-0.0625-0.23438c-0.042969-0.16406-0.11719-0.28516-0.21875-0.35938-0.10547-0.070312-0.24609-0.10938-0.42188-0.10938-0.375 0-0.69531 0.16797-0.95312 0.5-0.25 0.32422-0.375 0.75-0.375 1.2812 0 0.49219 0.14062 0.93359 0.42188 1.3281 0.28125 0.38672 0.66016 0.57812 1.1406 0.57812 0.34375 0 0.64453-0.10938 0.90625-0.32812 0.15625-0.125 0.32812-0.32812 0.51562-0.60938l0.125 0.09375c-0.17969 0.38672-0.37109 0.69531-0.57812 0.92188-0.39844 0.4375-0.85547 0.65625-1.375 0.65625-0.5 0-0.94922-0.19531-1.3438-0.59375-0.38672-0.40625-0.57812-0.95312-0.57812-1.6406 0-0.67578 0.21094-1.2539 0.64062-1.7344 0.42578-0.48828 0.96094-0.73438 1.6094-0.73438z"
             id="path425" />
        </g>
      </g>
      <g
         transform="matrix(.35278 0 0 .35278 4.6884 -52.808)"
         id="g435">
        <g
           transform="translate(348.96 413.36)"
           id="g433">
          <path
             d="m0.20312-0.14062c0.30078-0.03125 0.50391-0.085937 0.60938-0.17188 0.11328-0.09375 0.17188-0.27344 0.17188-0.54688v-4.7812c0-0.20703-0.023437-0.35156-0.0625-0.4375-0.0625-0.13281-0.19531-0.20312-0.39062-0.20312-0.042969 0-0.09375 0.00781-0.15625 0.015625-0.054688 0.011719-0.11719 0.027344-0.1875 0.046875v-0.17188c0.4375-0.11328 0.96094-0.26953 1.5781-0.46875 0.019531 0 0.03125 0.011719 0.03125 0.03125 0.00781 0.023437 0.015625 0.0625 0.015625 0.125v5.8594c0 0.28125 0.046875 0.46484 0.14062 0.54688 0.10156 0.085937 0.30469 0.13672 0.60938 0.15625v0.14062h-2.3594z"
             id="path431" />
        </g>
      </g>
      <g
         transform="matrix(.35278 0 0 .35278 4.6884 -52.808)"
         id="g441">
        <g
           transform="translate(351.36 413.36)"
           id="g439">
          <path
             d="m2.2969-4.5781c0.45703 0 0.85938 0.16406 1.2031 0.48438 0.34375 0.3125 0.51562 0.76172 0.51562 1.3438h-3.1094c0.039062 0.75 0.21094 1.2969 0.51562 1.6406 0.3125 0.34375 0.67969 0.51562 1.1094 0.51562 0.33203 0 0.61328-0.085938 0.84375-0.26562 0.23828-0.17578 0.45703-0.42578 0.65625-0.75l0.17188 0.046875c-0.125 0.41797-0.375 0.80469-0.75 1.1562-0.36719 0.35547-0.8125 0.53125-1.3438 0.53125-0.60547 0-1.0742-0.22656-1.4062-0.6875-0.33594-0.46875-0.5-1.0039-0.5-1.6094 0-0.65625 0.19141-1.2188 0.57812-1.6875 0.38281-0.47656 0.89062-0.71875 1.5156-0.71875zm-0.29688 0.35938c-0.36719 0-0.64844 0.16406-0.84375 0.48438-0.10547 0.17969-0.17969 0.40234-0.21875 0.67188h2.0625c-0.042969-0.33203-0.10547-0.57812-0.1875-0.73438-0.16797-0.28125-0.4375-0.42188-0.8125-0.42188z"
             id="path437" />
        </g>
      </g>
      <g
         transform="matrix(.35278 0 0 .35278 4.6884 -52.808)"
         id="g447">
        <g
           transform="translate(326.64 424.64)"
           id="g445">
          <path
             d="m2.8594-2.7031c-0.36719 0.125-0.67188 0.26172-0.92188 0.40625-0.46875 0.29297-0.70312 0.62109-0.70312 0.98438 0 0.30469 0.097656 0.52344 0.29688 0.65625 0.125 0.09375 0.26562 0.14062 0.42188 0.14062 0.21875 0 0.42188-0.054687 0.60938-0.17188 0.19531-0.125 0.29688-0.28125 0.29688-0.46875zm-2.5 1.7344c0-0.47656 0.23828-0.875 0.71875-1.1875 0.30078-0.19531 0.89453-0.46094 1.7812-0.79688v-0.40625c0-0.33203-0.03125-0.56641-0.09375-0.70312-0.10547-0.21875-0.33594-0.32812-0.6875-0.32812-0.16797 0-0.32422 0.042969-0.46875 0.125-0.15625 0.09375-0.23438 0.21875-0.23438 0.375 0 0.03125 0.00781 0.09375 0.03125 0.1875 0.019531 0.09375 0.03125 0.15625 0.03125 0.1875 0 0.17969-0.0625 0.30469-0.1875 0.375-0.074219 0.042969-0.15625 0.0625-0.25 0.0625-0.14844 0-0.26172-0.046875-0.34375-0.14062-0.074219-0.09375-0.10938-0.20312-0.10938-0.32812 0-0.21875 0.14062-0.45312 0.42188-0.70312s0.69531-0.375 1.25-0.375c0.625 0 1.0508 0.20312 1.2812 0.60938 0.11328 0.23047 0.17188 0.55859 0.17188 0.98438v1.9531c0 0.1875 0.015625 0.32031 0.046875 0.39062 0.039062 0.125 0.12891 0.1875 0.26562 0.1875 0.070313 0 0.12891-0.007812 0.17188-0.03125 0.050781-0.019531 0.14062-0.070312 0.26562-0.15625v0.25c-0.10547 0.125-0.21875 0.23047-0.34375 0.3125-0.17969 0.125-0.35938 0.1875-0.54688 0.1875-0.23047 0-0.39844-0.070312-0.5-0.21875-0.09375-0.14453-0.14844-0.31641-0.15625-0.51562-0.24219 0.21875-0.44922 0.38281-0.625 0.48438-0.30469 0.17969-0.58594 0.26562-0.84375 0.26562-0.28125 0-0.52734-0.097656-0.73438-0.29688-0.21094-0.19531-0.3125-0.44531-0.3125-0.75z"
             id="path443" />
        </g>
      </g>
      <g
         transform="matrix(.35278 0 0 .35278 4.6884 -52.808)"
         id="g453">
        <g
           transform="translate(330.96 424.64)"
           id="g451">
          <path
             d="m2.4844-4.6094c0.40625 0 0.75391 0.10938 1.0469 0.32812 0.30078 0.21094 0.45312 0.4375 0.45312 0.6875 0 0.10547-0.042969 0.20312-0.125 0.29688-0.074219 0.09375-0.1875 0.14062-0.34375 0.14062-0.11719 0-0.21484-0.035156-0.29688-0.10938-0.085938-0.082031-0.14844-0.20312-0.1875-0.35938l-0.0625-0.23438c-0.042969-0.16406-0.11719-0.28516-0.21875-0.35938-0.10547-0.070312-0.24609-0.10938-0.42188-0.10938-0.375 0-0.69531 0.16797-0.95312 0.5-0.25 0.32422-0.375 0.75-0.375 1.2812 0 0.49219 0.14062 0.93359 0.42188 1.3281 0.28125 0.38672 0.66016 0.57812 1.1406 0.57812 0.34375 0 0.64453-0.10938 0.90625-0.32812 0.15625-0.125 0.32812-0.32812 0.51562-0.60938l0.125 0.09375c-0.17969 0.38672-0.37109 0.69531-0.57812 0.92188-0.39844 0.4375-0.85547 0.65625-1.375 0.65625-0.5 0-0.94922-0.19531-1.3438-0.59375-0.38672-0.40625-0.57812-0.95312-0.57812-1.6406 0-0.67578 0.21094-1.2539 0.64062-1.7344 0.42578-0.48828 0.96094-0.73438 1.6094-0.73438z"
             id="path449" />
        </g>
      </g>
      <g
         transform="matrix(.35278 0 0 .35278 4.6884 -52.808)"
         id="g459">
        <g
           transform="translate(335.52 424.64)"
           id="g457">
          <path
             d="m2.5469-4.5v0.34375h-1l-0.015625 2.8125c0 0.25 0.023438 0.4375 0.078125 0.5625 0.070313 0.23047 0.22266 0.34375 0.45312 0.34375 0.11328 0 0.21094-0.023438 0.29688-0.078125 0.09375-0.0625 0.19141-0.14844 0.29688-0.26562l0.125 0.10938-0.09375 0.14062c-0.17969 0.23047-0.35938 0.39062-0.54688 0.48438s-0.37109 0.14062-0.54688 0.14062c-0.38672 0-0.64844-0.17188-0.78125-0.51562-0.074219-0.1875-0.10938-0.44141-0.10938-0.76562v-2.9688h-0.53125c-0.023437-0.007812-0.039063-0.015625-0.046875-0.015625v-0.046875c0-0.03125 0.003906-0.054688 0.015625-0.078125 0.019531-0.019531 0.066406-0.0625 0.14062-0.125 0.22656-0.1875 0.39062-0.33594 0.48438-0.45312 0.10156-0.11328 0.33594-0.41406 0.70312-0.90625 0.039062 0 0.066406 0.00781 0.078125 0.015625 0.00781 0 0.015625 0.023437 0.015625 0.0625v1.2031z"
             id="path455" />
        </g>
      </g>
      <g
         transform="matrix(.35278 0 0 .35278 4.6884 -52.808)"
         id="g465">
        <g
           transform="translate(338.4 424.64)"
           id="g463">
          <path
             d="m1.5469-4.5156v3.125c0 0.21875 0.03125 0.39844 0.09375 0.53125 0.125 0.24219 0.34766 0.35938 0.67188 0.35938 0.21875 0 0.42969-0.070312 0.64062-0.21875 0.125-0.070312 0.25-0.17969 0.375-0.32812v-2.6719c0-0.25781-0.054687-0.42578-0.15625-0.5-0.09375-0.082031-0.28906-0.12891-0.57812-0.14062v-0.15625h1.5781v3.4375c0 0.21875 0.035156 0.37109 0.10938 0.45312 0.082031 0.085938 0.25391 0.12109 0.51562 0.10938v0.14062c-0.1875 0.042969-0.32422 0.078125-0.40625 0.10938-0.085937 0.023437-0.22656 0.0625-0.42188 0.125-0.085938 0.03125-0.27344 0.10547-0.5625 0.21875-0.011719 0-0.023438-0.011719-0.03125-0.03125v-0.046875-0.78125c-0.21875 0.26172-0.41797 0.45312-0.59375 0.57812-0.28125 0.19922-0.57812 0.29688-0.89062 0.29688-0.28125 0-0.54688-0.097656-0.79688-0.29688-0.25-0.20703-0.375-0.54688-0.375-1.0156v-2.5312c0-0.25781-0.058594-0.42969-0.17188-0.51562-0.074219-0.050781-0.22656-0.09375-0.45312-0.125v-0.125z"
             id="path461" />
        </g>
      </g>
      <g
         transform="matrix(.35278 0 0 .35278 4.6884 -52.808)"
         id="g471">
        <g
           transform="translate(343.2 424.64)"
           id="g469">
          <path
             d="m2.8594-2.7031c-0.36719 0.125-0.67188 0.26172-0.92188 0.40625-0.46875 0.29297-0.70312 0.62109-0.70312 0.98438 0 0.30469 0.097656 0.52344 0.29688 0.65625 0.125 0.09375 0.26562 0.14062 0.42188 0.14062 0.21875 0 0.42188-0.054687 0.60938-0.17188 0.19531-0.125 0.29688-0.28125 0.29688-0.46875zm-2.5 1.7344c0-0.47656 0.23828-0.875 0.71875-1.1875 0.30078-0.19531 0.89453-0.46094 1.7812-0.79688v-0.40625c0-0.33203-0.03125-0.56641-0.09375-0.70312-0.10547-0.21875-0.33594-0.32812-0.6875-0.32812-0.16797 0-0.32422 0.042969-0.46875 0.125-0.15625 0.09375-0.23438 0.21875-0.23438 0.375 0 0.03125 0.00781 0.09375 0.03125 0.1875 0.019531 0.09375 0.03125 0.15625 0.03125 0.1875 0 0.17969-0.0625 0.30469-0.1875 0.375-0.074219 0.042969-0.15625 0.0625-0.25 0.0625-0.14844 0-0.26172-0.046875-0.34375-0.14062-0.074219-0.09375-0.10938-0.20312-0.10938-0.32812 0-0.21875 0.14062-0.45312 0.42188-0.70312s0.69531-0.375 1.25-0.375c0.625 0 1.0508 0.20312 1.2812 0.60938 0.11328 0.23047 0.17188 0.55859 0.17188 0.98438v1.9531c0 0.1875 0.015625 0.32031 0.046875 0.39062 0.039062 0.125 0.12891 0.1875 0.26562 0.1875 0.070313 0 0.12891-0.007812 0.17188-0.03125 0.050781-0.019531 0.14062-0.070312 0.26562-0.15625v0.25c-0.10547 0.125-0.21875 0.23047-0.34375 0.3125-0.17969 0.125-0.35938 0.1875-0.54688 0.1875-0.23047 0-0.39844-0.070312-0.5-0.21875-0.09375-0.14453-0.14844-0.31641-0.15625-0.51562-0.24219 0.21875-0.44922 0.38281-0.625 0.48438-0.30469 0.17969-0.58594 0.26562-0.84375 0.26562-0.28125 0-0.52734-0.097656-0.73438-0.29688-0.21094-0.19531-0.3125-0.44531-0.3125-0.75z"
             id="path467" />
        </g>
      </g>
      <g
         transform="matrix(.35278 0 0 .35278 4.6884 -52.808)"
         id="g477">
        <g
           transform="translate(347.76 424.64)"
           id="g475">
          <path
             d="m0.20312-0.14062c0.30078-0.03125 0.50391-0.085937 0.60938-0.17188 0.11328-0.09375 0.17188-0.27344 0.17188-0.54688v-4.7812c0-0.20703-0.023437-0.35156-0.0625-0.4375-0.0625-0.13281-0.19531-0.20312-0.39062-0.20312-0.042969 0-0.09375 0.00781-0.15625 0.015625-0.054688 0.011719-0.11719 0.027344-0.1875 0.046875v-0.17188c0.4375-0.11328 0.96094-0.26953 1.5781-0.46875 0.019531 0 0.03125 0.011719 0.03125 0.03125 0.00781 0.023437 0.015625 0.0625 0.015625 0.125v5.8594c0 0.28125 0.046875 0.46484 0.14062 0.54688 0.10156 0.085937 0.30469 0.13672 0.60938 0.15625v0.14062h-2.3594z"
             id="path473" />
        </g>
      </g>
    </g>
    <g
       transform="matrix(.35278 0 0 .35278 4.6884 -52.808)"
       clip-path="url(#clip21)"
       id="g487">
      <g
         id="g485">
        <g
           transform="translate(326.64 435.68)"
           id="g483">
          <path
             d="m2.5469-4.5v0.34375h-1l-0.015625 2.8125c0 0.25 0.023438 0.4375 0.078125 0.5625 0.070313 0.23047 0.22266 0.34375 0.45312 0.34375 0.11328 0 0.21094-0.023438 0.29688-0.078125 0.09375-0.0625 0.19141-0.14844 0.29688-0.26562l0.125 0.10938-0.09375 0.14062c-0.17969 0.23047-0.35938 0.39062-0.54688 0.48438s-0.37109 0.14062-0.54688 0.14062c-0.38672 0-0.64844-0.17188-0.78125-0.51562-0.074219-0.1875-0.10938-0.44141-0.10938-0.76562v-2.9688h-0.53125c-0.023437-0.007812-0.039063-0.015625-0.046875-0.015625v-0.046875c0-0.03125 0.003906-0.054688 0.015625-0.078125 0.019531-0.019531 0.066406-0.0625 0.14062-0.125 0.22656-0.1875 0.39062-0.33594 0.48438-0.45312 0.10156-0.11328 0.33594-0.41406 0.70312-0.90625 0.039062 0 0.066406 0.00781 0.078125 0.015625 0.00781 0 0.015625 0.023437 0.015625 0.0625v1.2031z"
             id="path481" />
        </g>
      </g>
    </g>
    <g
       transform="matrix(.35278 0 0 .35278 4.6884 -52.808)"
       id="g493">
      <g
         transform="translate(329.28 435.68)"
         id="g491">
        <path
           d="m0.046875-0.15625c0.30078-0.03125 0.5-0.082031 0.59375-0.15625 0.09375-0.082031 0.14062-0.25391 0.14062-0.51562v-2.2031c0-0.32031-0.03125-0.55078-0.09375-0.6875-0.054688-0.14453-0.16406-0.21875-0.32812-0.21875-0.03125 0-0.074219 0.00781-0.125 0.015625-0.054687 0.011719-0.10938 0.023437-0.17188 0.03125v-0.15625c0.1875-0.0625 0.37891-0.125 0.57812-0.1875 0.19531-0.070313 0.33203-0.125 0.40625-0.15625 0.16406-0.0625 0.33203-0.13281 0.5-0.21875 0.019531 0 0.03125 0.011719 0.03125 0.03125 0.00781 0.011719 0.015625 0.042969 0.015625 0.09375v0.8125c0.20703-0.28906 0.40625-0.51562 0.59375-0.67188 0.19531-0.16406 0.39844-0.25 0.60938-0.25 0.16406 0 0.30078 0.054688 0.40625 0.15625 0.10156 0.09375 0.15625 0.21484 0.15625 0.35938 0 0.13672-0.042969 0.25-0.125 0.34375-0.074219 0.085937-0.17188 0.125-0.29688 0.125-0.11719 0-0.23438-0.054687-0.35938-0.17188-0.125-0.11328-0.22656-0.17188-0.29688-0.17188-0.11719 0-0.25781 0.09375-0.42188 0.28125-0.16797 0.1875-0.25 0.38281-0.25 0.57812v2.1875c0 0.28125 0.0625 0.48047 0.1875 0.59375 0.13281 0.10547 0.35156 0.15625 0.65625 0.15625v0.15625h-2.4062z"
           id="path489" />
      </g>
    </g>
    <g
       transform="matrix(.35278 0 0 .35278 4.6884 -52.808)"
       id="g499">
      <g
         transform="translate(332.64 435.68)"
         id="g497">
        <path
           d="m2.8594-2.7031c-0.36719 0.125-0.67188 0.26172-0.92188 0.40625-0.46875 0.29297-0.70312 0.62109-0.70312 0.98438 0 0.30469 0.097656 0.52344 0.29688 0.65625 0.125 0.09375 0.26562 0.14062 0.42188 0.14062 0.21875 0 0.42188-0.054687 0.60938-0.17188 0.19531-0.125 0.29688-0.28125 0.29688-0.46875zm-2.5 1.7344c0-0.47656 0.23828-0.875 0.71875-1.1875 0.30078-0.19531 0.89453-0.46094 1.7812-0.79688v-0.40625c0-0.33203-0.03125-0.56641-0.09375-0.70312-0.10547-0.21875-0.33594-0.32812-0.6875-0.32812-0.16797 0-0.32422 0.042969-0.46875 0.125-0.15625 0.09375-0.23438 0.21875-0.23438 0.375 0 0.03125 0.00781 0.09375 0.03125 0.1875 0.019531 0.09375 0.03125 0.15625 0.03125 0.1875 0 0.17969-0.0625 0.30469-0.1875 0.375-0.074219 0.042969-0.15625 0.0625-0.25 0.0625-0.14844 0-0.26172-0.046875-0.34375-0.14062-0.074219-0.09375-0.10938-0.20312-0.10938-0.32812 0-0.21875 0.14062-0.45312 0.42188-0.70312s0.69531-0.375 1.25-0.375c0.625 0 1.0508 0.20312 1.2812 0.60938 0.11328 0.23047 0.17188 0.55859 0.17188 0.98438v1.9531c0 0.1875 0.015625 0.32031 0.046875 0.39062 0.039062 0.125 0.12891 0.1875 0.26562 0.1875 0.070313 0 0.12891-0.007812 0.17188-0.03125 0.050781-0.019531 0.14062-0.070312 0.26562-0.15625v0.25c-0.10547 0.125-0.21875 0.23047-0.34375 0.3125-0.17969 0.125-0.35938 0.1875-0.54688 0.1875-0.23047 0-0.39844-0.070312-0.5-0.21875-0.09375-0.14453-0.14844-0.31641-0.15625-0.51562-0.24219 0.21875-0.44922 0.38281-0.625 0.48438-0.30469 0.17969-0.58594 0.26562-0.84375 0.26562-0.28125 0-0.52734-0.097656-0.73438-0.29688-0.21094-0.19531-0.3125-0.44531-0.3125-0.75z"
           id="path495" />
      </g>
    </g>
    <g
       transform="matrix(.35278 0 0 .35278 4.6884 -52.808)"
       clip-path="url(#clip22)"
       id="g507">
      <g
         id="g505">
        <g
           transform="translate(337.2 435.68)"
           id="g503">
          <path
             d="m1.0938-6.2969c0-0.14453 0.046875-0.26562 0.14062-0.35938 0.10156-0.10156 0.22656-0.15625 0.375-0.15625 0.13281 0 0.25 0.054688 0.34375 0.15625 0.10156 0.09375 0.15625 0.21484 0.15625 0.35938 0 0.13672-0.054687 0.25781-0.15625 0.35938-0.09375 0.09375-0.21094 0.14062-0.34375 0.14062-0.14844 0-0.27344-0.046875-0.375-0.14062-0.09375-0.10156-0.14062-0.22266-0.14062-0.35938zm-1.2656 7.5312c0.16797 0 0.32812 0.10156 0.48438 0.3125 0.16406 0.20703 0.3125 0.3125 0.4375 0.3125 0.20703 0 0.34375-0.12109 0.40625-0.35938 0.039062-0.14844 0.066406-0.38672 0.078125-0.71875v-0.89062-3.2188c0-0.21875-0.023437-0.37891-0.0625-0.48438-0.042969-0.10156-0.14062-0.15625-0.29688-0.15625-0.042969 0-0.10156 0.011719-0.17188 0.03125-0.074219 0.011719-0.15234 0.027344-0.23438 0.046875v-0.14062l0.42188-0.14062c0.10156-0.03125 0.23438-0.070313 0.39062-0.125 0.16406-0.0625 0.32031-0.125 0.46875-0.1875l0.28125-0.09375c0.019531 0.023437 0.03125 0.042969 0.03125 0.0625v4.5156c0 0.5625-0.074219 1-0.21875 1.3125-0.26172 0.58203-0.76172 0.875-1.5 0.875-0.24219 0-0.45312-0.054688-0.64062-0.15625-0.1875-0.09375-0.28125-0.21875-0.28125-0.375 0-0.11719 0.039063-0.21484 0.10938-0.29688 0.074219-0.085937 0.17188-0.125 0.29688-0.125z"
             id="path501" />
        </g>
      </g>
    </g>
    <g
       id="g539">
      <g
         transform="matrix(.35278 0 0 .35278 4.6884 -52.808)"
         id="g513">
        <g
           transform="translate(339.6 435.68)"
           id="g511">
          <path
             d="m2.2969-4.5781c0.45703 0 0.85938 0.16406 1.2031 0.48438 0.34375 0.3125 0.51562 0.76172 0.51562 1.3438h-3.1094c0.039062 0.75 0.21094 1.2969 0.51562 1.6406 0.3125 0.34375 0.67969 0.51562 1.1094 0.51562 0.33203 0 0.61328-0.085938 0.84375-0.26562 0.23828-0.17578 0.45703-0.42578 0.65625-0.75l0.17188 0.046875c-0.125 0.41797-0.375 0.80469-0.75 1.1562-0.36719 0.35547-0.8125 0.53125-1.3438 0.53125-0.60547 0-1.0742-0.22656-1.4062-0.6875-0.33594-0.46875-0.5-1.0039-0.5-1.6094 0-0.65625 0.19141-1.2188 0.57812-1.6875 0.38281-0.47656 0.89062-0.71875 1.5156-0.71875zm-0.29688 0.35938c-0.36719 0-0.64844 0.16406-0.84375 0.48438-0.10547 0.17969-0.17969 0.40234-0.21875 0.67188h2.0625c-0.042969-0.33203-0.10547-0.57812-0.1875-0.73438-0.16797-0.28125-0.4375-0.42188-0.8125-0.42188z"
             id="path509" />
        </g>
      </g>
      <g
         transform="matrix(.35278 0 0 .35278 4.6884 -52.808)"
         id="g519">
        <g
           transform="translate(344.16 435.68)"
           id="g517">
          <path
             d="m2.4844-4.6094c0.40625 0 0.75391 0.10938 1.0469 0.32812 0.30078 0.21094 0.45312 0.4375 0.45312 0.6875 0 0.10547-0.042969 0.20312-0.125 0.29688-0.074219 0.09375-0.1875 0.14062-0.34375 0.14062-0.11719 0-0.21484-0.035156-0.29688-0.10938-0.085938-0.082031-0.14844-0.20312-0.1875-0.35938l-0.0625-0.23438c-0.042969-0.16406-0.11719-0.28516-0.21875-0.35938-0.10547-0.070312-0.24609-0.10938-0.42188-0.10938-0.375 0-0.69531 0.16797-0.95312 0.5-0.25 0.32422-0.375 0.75-0.375 1.2812 0 0.49219 0.14062 0.93359 0.42188 1.3281 0.28125 0.38672 0.66016 0.57812 1.1406 0.57812 0.34375 0 0.64453-0.10938 0.90625-0.32812 0.15625-0.125 0.32812-0.32812 0.51562-0.60938l0.125 0.09375c-0.17969 0.38672-0.37109 0.69531-0.57812 0.92188-0.39844 0.4375-0.85547 0.65625-1.375 0.65625-0.5 0-0.94922-0.19531-1.3438-0.59375-0.38672-0.40625-0.57812-0.95312-0.57812-1.6406 0-0.67578 0.21094-1.2539 0.64062-1.7344 0.42578-0.48828 0.96094-0.73438 1.6094-0.73438z"
             id="path515" />
        </g>
      </g>
      <g
         transform="matrix(.35278 0 0 .35278 4.6884 -52.808)"
         id="g525">
        <g
           transform="translate(348.48 435.68)"
           id="g523">
          <path
             d="m2.5469-4.5v0.34375h-1l-0.015625 2.8125c0 0.25 0.023438 0.4375 0.078125 0.5625 0.070313 0.23047 0.22266 0.34375 0.45312 0.34375 0.11328 0 0.21094-0.023438 0.29688-0.078125 0.09375-0.0625 0.19141-0.14844 0.29688-0.26562l0.125 0.10938-0.09375 0.14062c-0.17969 0.23047-0.35938 0.39062-0.54688 0.48438s-0.37109 0.14062-0.54688 0.14062c-0.38672 0-0.64844-0.17188-0.78125-0.51562-0.074219-0.1875-0.10938-0.44141-0.10938-0.76562v-2.9688h-0.53125c-0.023437-0.007812-0.039063-0.015625-0.046875-0.015625v-0.046875c0-0.03125 0.003906-0.054688 0.015625-0.078125 0.019531-0.019531 0.066406-0.0625 0.14062-0.125 0.22656-0.1875 0.39062-0.33594 0.48438-0.45312 0.10156-0.11328 0.33594-0.41406 0.70312-0.90625 0.039062 0 0.066406 0.00781 0.078125 0.015625 0.00781 0 0.015625 0.023437 0.015625 0.0625v1.2031z"
             id="path521" />
        </g>
      </g>
      <g
         transform="matrix(.35278 0 0 .35278 4.6884 -52.808)"
         id="g531">
        <g
           transform="translate(351.36 435.68)"
           id="g529">
          <path
             d="m0.25-2.2656c0-0.64453 0.20312-1.1914 0.60938-1.6406 0.41406-0.44531 0.95312-0.67188 1.6094-0.67188 0.63281 0 1.1641 0.21484 1.5938 0.64062 0.42578 0.41797 0.64062 0.98047 0.64062 1.6875 0 0.64844-0.21094 1.2109-0.625 1.6875-0.40625 0.48047-0.9375 0.71875-1.5938 0.71875-0.625 0-1.1562-0.22656-1.5938-0.6875-0.42969-0.45703-0.64062-1.0352-0.64062-1.7344zm2.0781-2.0156c-0.26172 0-0.48438 0.085938-0.67188 0.25-0.32422 0.29297-0.48438 0.80469-0.48438 1.5312 0 0.58594 0.12891 1.125 0.39062 1.625 0.25781 0.5 0.625 0.75 1.0938 0.75 0.36328 0 0.64453-0.16406 0.84375-0.5 0.19531-0.34375 0.29688-0.78516 0.29688-1.3281 0-0.5625-0.13281-1.0859-0.39062-1.5781-0.25-0.5-0.60938-0.75-1.0781-0.75z"
             id="path527" />
        </g>
      </g>
      <g
         transform="matrix(.35278 0 0 .35278 4.6884 -52.808)"
         id="g537">
        <g
           transform="translate(356.4 435.68)"
           id="g535">
          <path
             d="m0.046875-0.15625c0.30078-0.03125 0.5-0.082031 0.59375-0.15625 0.09375-0.082031 0.14062-0.25391 0.14062-0.51562v-2.2031c0-0.32031-0.03125-0.55078-0.09375-0.6875-0.054688-0.14453-0.16406-0.21875-0.32812-0.21875-0.03125 0-0.074219 0.00781-0.125 0.015625-0.054687 0.011719-0.10938 0.023437-0.17188 0.03125v-0.15625c0.1875-0.0625 0.37891-0.125 0.57812-0.1875 0.19531-0.070313 0.33203-0.125 0.40625-0.15625 0.16406-0.0625 0.33203-0.13281 0.5-0.21875 0.019531 0 0.03125 0.011719 0.03125 0.03125 0.00781 0.011719 0.015625 0.042969 0.015625 0.09375v0.8125c0.20703-0.28906 0.40625-0.51562 0.59375-0.67188 0.19531-0.16406 0.39844-0.25 0.60938-0.25 0.16406 0 0.30078 0.054688 0.40625 0.15625 0.10156 0.09375 0.15625 0.21484 0.15625 0.35938 0 0.13672-0.042969 0.25-0.125 0.34375-0.074219 0.085937-0.17188 0.125-0.29688 0.125-0.11719 0-0.23438-0.054687-0.35938-0.17188-0.125-0.11328-0.22656-0.17188-0.29688-0.17188-0.11719 0-0.25781 0.09375-0.42188 0.28125-0.16797 0.1875-0.25 0.38281-0.25 0.57812v2.1875c0 0.28125 0.0625 0.48047 0.1875 0.59375 0.13281 0.10547 0.35156 0.15625 0.65625 0.15625v0.15625h-2.4062z"
             id="path533" />
        </g>
      </g>
    </g>
    <g
       transform="matrix(.35278 0 0 .35278 4.6884 -52.808)"
       clip-path="url(#clip23)"
       id="g547">
      <g
         id="g545">
        <g
           transform="translate(359.52 435.68)"
           id="g543">
          <path
             d="m0.14062-4.4844h2.0625v0.14062c-0.16797 0.011719-0.28906 0.027344-0.35938 0.046875-0.15625 0.042969-0.23438 0.125-0.23438 0.25 0 0.054687 0.00391 0.10547 0.015625 0.15625 0.019531 0.042969 0.050781 0.10938 0.09375 0.20312l1.1406 2.5312 0.92188-2.5625c0.00781-0.019531 0.023438-0.078125 0.046875-0.17188 0.019531-0.09375 0.03125-0.15625 0.03125-0.1875 0-0.082031-0.03125-0.14062-0.09375-0.17188-0.054687-0.039062-0.125-0.066406-0.21875-0.078125l-0.14062-0.015625v-0.14062h1.3281v0.14062c-0.125 0.023438-0.22656 0.070312-0.29688 0.14062-0.0625 0.074219-0.12109 0.17969-0.17188 0.3125l-1.5312 4.0781c-0.27344 0.69531-0.53125 1.2031-0.78125 1.5156-0.24219 0.32031-0.54688 0.48438-0.92188 0.48438-0.17969 0-0.35156-0.046875-0.51562-0.14062-0.15625-0.085937-0.23438-0.23047-0.23438-0.4375 0-0.125 0.046875-0.23047 0.14062-0.3125 0.10156-0.085937 0.22656-0.125 0.375-0.125 0.082031 0 0.20703 0.03125 0.375 0.09375 0.16406 0.0625 0.28516 0.09375 0.35938 0.09375 0.17578 0 0.36328-0.21484 0.5625-0.64062 0.20703-0.41797 0.3125-0.69922 0.3125-0.84375 0-0.03125-0.00781-0.066406-0.015625-0.10938-0.011719-0.039063-0.023437-0.078125-0.03125-0.10938l-1.5625-3.375c-0.11719-0.25-0.21484-0.41016-0.29688-0.48438-0.085938-0.070313-0.20312-0.11719-0.35938-0.14062z"
             id="path541" />
        </g>
      </g>
    </g>
    <path
       d="m94.859 92.762-0.59256-1.779 1.7777 0.59255"
       id="path549" />
    <path
       d="m94.859 92.762-0.59256-1.779 1.7777 0.59255zm0 0"
       fill="none"
       stroke="#000"
       stroke-linecap="round"
       stroke-linejoin="round"
       stroke-miterlimit="10"
       stroke-width=".084667"
       id="path551" />
    <path
       d="m91.218 102.33-1.6096-0.59255h-0.0841v-0.0841h0.0841l1.6096 0.50711 0.0841 0.0854h-0.0841zm-1.779 0.1695-1.2692-1.2692 1.8631-0.339-0.59393 1.6082"
       id="path553" />
    <path
       d="m91.218 102.33-1.6096-0.59256h-0.0841v-0.0841h0.0841l1.6096 0.50712 0.0841 0.0854h-0.0841zm-1.779 0.16949-1.2692-1.2692 1.8631-0.339zm0 0"
       fill="none"
       stroke="#000"
       stroke-linecap="round"
       stroke-linejoin="round"
       stroke-miterlimit="10"
       stroke-width=".084667"
       id="path555" />
  </g>
</svg>
